<?xml version="1.0" encoding="utf-8"?>
<!-- Generator: Adobe Illustrator 26.0.3, SVG Export Plug-In . SVG Version: 6.00 Build 0)  -->
<svg version="1.1" id="Layer_1" xmlns="http://www.w3.org/2000/svg" xmlns:xlink="http://www.w3.org/1999/xlink" x="0px" y="0px"
	 viewBox="0 0 720 621" style="enable-background:new 0 0 720 621;" xml:space="preserve">
<style type="text/css">
	.st0{clip-path:url(#SVGID_00000083070760009250500940000004537520778165147015_);}
	.st1{fill:#3E3E40;}
	.st2{fill:#FF636C;}
	.st3{fill:#E5ECFF;}
	.st4{fill:#E28B6D;}
	.st5{fill:#303032;}
	.st6{opacity:0.8;fill:#FFFFFF;}
	.st7{fill:#E1E1E1;}
	.st8{opacity:0.3;}
	.st9{fill:#FFFFFF;}
	.st10{fill:#AFAFAF;}
	.st11{fill:#858587;}
	.st12{fill:#6B66F9;}
	.st13{fill:#171719;}
	.st14{fill:#6F3428;}
	.st15{fill:#6A66FB;}
	.st16{opacity:0.3;fill:#1F3C88;}
	.st17{fill:#102048;}
	.st18{fill:#F9B384;}
	.st19{fill:#797977;}
	.st20{opacity:0.5;fill:#3E3E40;}
	.st21{fill:none;stroke:#102048;stroke-width:5;stroke-miterlimit:10;}
	.st22{fill:#3C1C16;}
	.st23{opacity:0.15;fill:#3C1C16;}
	.st24{opacity:0.5;fill:#FC8879;}
	.st25{opacity:0.4;fill:#FFFFFF;}
	.st26{fill:#B9D088;}
	.st27{opacity:0.8;}
</style>
<g>
	<g>
		<g>
			<defs>
				<path id="SVGID_1_" d="M555.3,306.5c-13.9,40.4-30.6,80.2-88.5,95.6l-250.4-2.7c-56.4-26.7-87.3-79.3-92.4-136.1
					c-1.7-18.8-0.6-38,3.3-56.9c1-5,2.3-9.9,3.7-14.8c12.9-44.6,40.3-86.7,81.1-110.4c26.2-15.2,59.7-10.2,87.5-2.4
					c25.1,7.1,49.5,16.9,75.4,19.9c20.6,2.4,41.6,0.3,62.3,1.1c7.4,0.3,14.8,1,22,2.3c31.2,5.9,58.9,25,77.9,50.6
					c6.5,8.8,12.1,18.4,16.3,28.4C570.3,220.6,569.3,266.1,555.3,306.5z"/>
			</defs>
			<clipPath id="SVGID_00000029022007954728586320000016301665388731725215_">
				<use xlink:href="#SVGID_1_"  style="overflow:visible;"/>
			</clipPath>
			<g style="clip-path:url(#SVGID_00000029022007954728586320000016301665388731725215_);">
				<g>
					<path class="st1" d="M555.3,306.5c-13.9,40.4-30.6,80.2-88.5,95.6l-250.4-2.7c-56.4-26.7-87.3-79.3-92.4-136.1
						c-1.7-18.8-0.6-38,3.3-56.9c1-5,2.3-9.9,3.7-14.8c12.9-44.6,40.3-86.7,81.1-110.4c26.2-15.2,59.7-10.2,87.5-2.4
						c25.1,7.1,49.5,16.9,75.4,19.9c20.6,2.4,41.6,0.3,62.3,1.1c7.4,0.3,14.8,1,22,2.3c31.2,5.9,58.9,25,77.9,50.6
						c6.5,8.8,12.1,18.4,16.3,28.4C570.3,220.6,569.3,266.1,555.3,306.5z"/>
				</g>
			</g>
		</g>
	</g>
	<g>
		<path class="st2" d="M624.1,353.7c-0.1,0-0.1,0-0.2,0l0.5-8.1h-41.2l2,34.4c0.4,6.4,5.7,11.5,12.2,11.5h12.9
			c6.5,0,11.8-5,12.2-11.5l0.5-7.9c0.4,0,0.8,0.1,1.2,0.1c6,0,10.9-4.1,10.9-9.2C635,357.8,630.1,353.7,624.1,353.7z M624.1,368.3
			c-0.3,0-0.7,0-1-0.1l0.6-10.7c0.1,0,0.3,0,0.4,0c3.9,0,7.1,2.4,7.1,5.4C631.2,365.9,628,368.3,624.1,368.3z"/>
		<g>
			<path class="st3" d="M608,342.5c-4-0.5-7.9-2.9-10.4-6.2c-1.3-1.7-2.3-3.6-2.9-5.7c-0.2-0.5-0.3-1.1-0.4-1.6
				c-0.1-0.5-0.2-1.1-0.2-1.6c-0.1-1.1-0.1-2.2,0-3.2c0.2-2.1,0.8-4.2,1.8-6.2c0.5-1,1-1.9,1.7-2.7c0.6-0.9,1.4-1.7,2.1-2.3
				c0.7-0.7,1.4-1.3,2-1.8c0.3-0.3,0.6-0.6,0.8-0.9c0.2-0.3,0.5-0.6,0.6-0.9c0.3-0.6,0.6-1.3,0.6-2c0-0.7-0.1-1.3-0.6-1.8l1-1.5
				c0.6,0.3,1,0.7,1.4,1.2c0.4,0.5,0.6,1.1,0.7,1.7c0.3,1.2,0.2,2.4-0.2,3.6c-0.8,2.3-2.4,3.9-3.5,5.2c-0.6,0.7-1.1,1.3-1.5,2
				c-0.2,0.3-0.4,0.7-0.6,1c-0.2,0.4-0.4,0.7-0.5,1.1c-0.7,1.5-1.1,3.1-1.2,4.7c-0.3,3.3,0.4,6.5,2.1,9.4c1.7,2.8,4.4,5.2,7.7,6.7
				L608,342.5z"/>
			<path class="st3" d="M609.2,332.8c1.7-1.5,3-3.1,4-4.8c1-1.7,1.7-3.6,2.1-5.5c0.3-1.9,0.3-3.9-0.1-5.8c-0.4-2-1.1-3.9-2.1-5.9
				l1.3-1.3c2.1,1.4,3.8,3.5,4.7,6c1,2.4,1.2,5.2,0.7,7.8c-0.5,2.6-1.7,5.1-3.4,7.1c-1.7,1.9-4,3.4-6.4,4L609.2,332.8z"/>
		</g>
	</g>
	<path class="st4" d="M440.3,368.1c16.9,4.3,40.1,8.2,32.7,22.7l-42.1,0L440.3,368.1z"/>
	<g>
		<path class="st5" d="M245,402.1L245,402.1c-25.2,0-45.6-20.4-45.6-45.6v-42.5c0-25.2,20.4-45.6,45.6-45.6h0
			c25.2,0,45.6,20.4,45.6,45.6v42.5C290.6,381.7,270.2,402.1,245,402.1z"/>
		<path class="st6" d="M219.8,280.8c-1.5,0.4-2.6,1.8-3.3,3.2c-0.7,1.5-1.1,3-1.5,4.6c-0.7,3.2-1,6.5-1.2,9.8
			c-0.3,6.6-0.2,13.2,0.2,19.8c0.4,6.6,1,13.2,1.8,19.8c0.4,3.3,0.8,6.6,1.3,9.8c0.5,3.3,1,6.5,1.7,9.8l-0.5,0.1
			c-0.8-3.2-1.5-6.5-2.1-9.7c-0.6-3.3-1.1-6.6-1.6-9.8c-0.9-6.6-1.5-13.2-1.9-19.8c-0.3-6.6-0.5-13.3,0-19.9
			c0.3-3.3,0.6-6.6,1.4-9.9c0.4-1.6,0.9-3.2,1.7-4.7c0.4-0.7,0.9-1.5,1.5-2.1c0.6-0.6,1.4-1.1,2.2-1.3L219.8,280.8z"/>
	</g>
	<g>
		<g>
			<g>
				<path class="st7" d="M202,215.3l-36-13.1c-3.8-1.4-5.7-5.6-4.3-9.3l7.2-19.8c1.4-3.8,5.6-5.7,9.3-4.3l36,13.1
					c3.8,1.4,5.7,5.6,4.3,9.3l-7.2,19.8C209.9,214.7,205.8,216.7,202,215.3z"/>
			</g>
			<g class="st8">
				
					<rect x="165.9" y="182.3" transform="matrix(0.9394 0.3427 -0.3427 0.9394 75.3967 -54.6382)" class="st9" width="52.9" height="7.5"/>
			</g>
			<g>
				<g>
					<path class="st9" d="M183.8,200.2c0,0.1-4.1-1.3-9.1-3.2c-5-1.8-9-3.4-9-3.4c0-0.1,4.1,1.3,9.1,3.2
						C179.8,198.6,183.8,200.1,183.8,200.2z"/>
				</g>
			</g>
			<g>
				<g>
					<path class="st9" d="M188.2,200c0,0.1-5-1.6-11-3.8c-6-2.2-10.9-4.1-10.9-4.1c0-0.1,5,1.6,11,3.8
						C183.4,198,188.2,199.9,188.2,200z"/>
				</g>
			</g>
		</g>
		<g>
			<g>
				<g>
					<g>
						<path class="st10" d="M415.6,129.2c1.5,10.7-5.9,20.6-16.5,22.1c-10.7,1.6-20.6-5.8-22.2-16.5c-1.5-10.7,5.9-20.6,16.5-22.1
							C404.2,111.1,414.1,118.5,415.6,129.2z"/>
					</g>
				</g>
				<g>
					<path class="st11" d="M411,129.9c1.2,8.1-4.5,15.7-12.6,16.9c-8.1,1.2-15.7-4.4-16.9-12.6c-1.2-8.1,4.5-15.7,12.6-16.9
						C402.3,116.1,409.9,121.7,411,129.9z"/>
				</g>
				<g>
					<g>
						<path class="st7" d="M411,129.4c-0.1,0-0.2-0.6-0.6-1.7c-0.4-1.1-1.1-2.6-2.4-4.3c-0.6-0.8-1.4-1.6-2.3-2.4
							c-0.9-0.8-2-1.5-3.3-2c-0.6-0.3-1.3-0.5-1.9-0.7c-0.7-0.2-1.4-0.4-2.1-0.4c-0.7-0.1-1.5-0.1-2.2-0.1c-0.8,0-1.5,0.1-2.3,0.2
							c-0.8,0.1-1.5,0.3-2.2,0.6c-0.7,0.2-1.4,0.6-2,0.9c-0.7,0.3-1.3,0.7-1.8,1.1c-0.6,0.4-1.1,0.9-1.6,1.3c-1,0.9-1.7,2-2.4,3
							c-0.6,1-1.1,2.1-1.4,3.1c-0.6,2-0.7,3.7-0.7,4.8c0,1.2,0.1,1.8,0,1.8c-0.1,0-0.3-0.6-0.4-1.8c-0.1-1.2-0.2-3,0.4-5.1
							c0.3-1,0.7-2.2,1.3-3.3c0.6-1.1,1.4-2.3,2.4-3.3c0.5-0.5,1.1-1,1.7-1.5c0.6-0.5,1.3-0.9,2-1.3c0.7-0.4,1.4-0.7,2.2-1
							c0.8-0.3,1.6-0.5,2.4-0.6c0.8-0.1,1.7-0.2,2.5-0.2c0.8,0,1.6,0,2.4,0.2c0.8,0.1,1.5,0.3,2.3,0.5c0.7,0.2,1.4,0.5,2.1,0.8
							c1.3,0.6,2.5,1.4,3.4,2.2c1,0.8,1.8,1.8,2.4,2.6c1.3,1.8,1.8,3.5,2.1,4.6C411,128.7,411,129.4,411,129.4z"/>
					</g>
				</g>
			</g>
			<g>
				<g>
					<g>
						<path class="st7" d="M398.5,141.1l0.4,2.6l-2.3,0.4l-0.4-2.5c-2.3,0.2-4.6-0.1-6-0.9l0.8-3c1.3,0.7,3,1,4.7,0.9l-0.6-3.8
							c-2.6-0.2-5.6-0.6-6.1-3.9c-0.4-2.4,1-4.8,4.6-5.8l-0.4-2.5l2.3-0.4l0.4,2.5c1.7-0.1,3.5,0.1,4.9,0.7l-0.7,3
							c-1.3-0.5-2.5-0.7-3.7-0.6l0.6,3.9c2.6,0.2,5.6,0.6,6.1,3.8C403.5,137.8,402.1,140.1,398.5,141.1z M394.6,131.4l-0.5-3.2
							c-1.2,0.5-1.5,1.2-1.4,2C392.8,130.9,393.6,131.2,394.6,131.4z M399.4,136.3c-0.1-0.8-0.9-1.1-1.9-1.3l0.5,3.2
							C399.2,137.7,399.6,137,399.4,136.3z"/>
					</g>
				</g>
			</g>
		</g>
		<g>
			<g>
				<g>
					<g>
						<path class="st10" d="M460.3,212.1c1,6.7-3.7,13-10.4,14c-6.7,1-13-3.7-14-10.4c-1-6.7,3.7-13,10.4-14
							C453,200.7,459.3,205.3,460.3,212.1z"/>
					</g>
				</g>
				<g>
					<path class="st11" d="M457.4,212.5c0.7,5.1-2.8,9.9-8,10.6c-5.1,0.7-9.9-2.8-10.7-7.9c-0.7-5.1,2.8-9.9,8-10.6
						C451.8,203.8,456.6,207.4,457.4,212.5z"/>
				</g>
				<g>
					<g>
						<path class="st7" d="M457.3,212.2c-0.1,0-0.2-0.4-0.4-1.1c-0.3-0.7-0.7-1.7-1.5-2.7c-0.4-0.5-0.9-1-1.5-1.5
							c-0.6-0.5-1.3-0.9-2.1-1.3c-0.4-0.2-0.8-0.3-1.2-0.5c-0.4-0.1-0.9-0.2-1.3-0.3c-0.5-0.1-0.9-0.1-1.4-0.1c-0.5,0-1,0.1-1.4,0.1
							c-0.5,0.1-1,0.2-1.4,0.4c-0.5,0.2-0.9,0.3-1.3,0.6c-0.4,0.2-0.8,0.5-1.2,0.7c-0.4,0.3-0.7,0.5-1,0.8c-0.6,0.6-1.1,1.2-1.5,1.9
							c-0.4,0.7-0.7,1.3-0.9,1.9c-0.4,1.2-0.5,2.3-0.5,3c0,0.7,0,1.1,0,1.2c0,0-0.2-0.4-0.3-1.1c-0.1-0.7-0.1-1.9,0.3-3.2
							c0.2-0.7,0.4-1.4,0.8-2.1c0.4-0.7,0.9-1.4,1.5-2.1c0.3-0.3,0.7-0.6,1.1-0.9c0.4-0.3,0.8-0.6,1.2-0.8c0.4-0.2,0.9-0.4,1.4-0.6
							c0.5-0.2,1-0.3,1.5-0.4c0.5-0.1,1-0.1,1.6-0.1c0.5,0,1,0,1.5,0.1c0.5,0.1,1,0.2,1.4,0.3c0.5,0.1,0.9,0.3,1.3,0.5
							c0.8,0.4,1.5,0.9,2.2,1.4c0.6,0.5,1.1,1.1,1.5,1.7c0.8,1.1,1.2,2.2,1.3,2.9C457.3,211.8,457.3,212.2,457.3,212.2z"/>
					</g>
				</g>
			</g>
			<g>
				<g>
					<g>
						<path class="st7" d="M449.9,219.2l0.3,1.6l-1.4,0.2l-0.3-1.6c-1.4,0.1-2.9-0.1-3.8-0.6l0.5-1.9c0.8,0.4,1.9,0.6,3,0.6
							l-0.4-2.4c-1.7-0.1-3.5-0.4-3.9-2.4c-0.2-1.5,0.7-3,2.9-3.6l-0.3-1.6l1.4-0.2l0.3,1.6c1.1-0.1,2.2,0,3.1,0.4l-0.4,1.9
							c-0.8-0.3-1.6-0.4-2.3-0.4l0.4,2.5c1.7,0.1,3.5,0.4,3.8,2.4C453,217.1,452.1,218.6,449.9,219.2z M447.4,213.1l-0.3-2.1
							c-0.7,0.3-1,0.8-0.9,1.2C446.3,212.8,446.8,213,447.4,213.1z M450.5,216.2c-0.1-0.5-0.5-0.7-1.2-0.8l0.3,2
							C450.3,217.1,450.6,216.6,450.5,216.2z"/>
					</g>
				</g>
			</g>
		</g>
		<g>
			<g>
				<g>
					<path class="st10" d="M230,151.4c1.4,9.8-5.4,18.9-15.2,20.3c-9.8,1.4-18.9-5.4-20.4-15.2c-1.4-9.8,5.4-18.9,15.2-20.3
						C219.5,134.8,228.6,141.6,230,151.4z"/>
				</g>
				<g>
					<g>
						<path class="st11" d="M225.8,152c1.1,7.5-4.1,14.4-11.6,15.5c-7.5,1.1-14.4-4.1-15.5-11.5c-1.1-7.5,4.1-14.4,11.6-15.5
							C217.8,139.4,224.7,144.6,225.8,152z"/>
					</g>
				</g>
				<g>
					<g>
						<path class="st7" d="M225.7,151.6c-0.1,0-0.2-0.6-0.6-1.6c-0.4-1-1-2.4-2.2-3.9c-0.6-0.7-1.3-1.5-2.2-2.2
							c-0.9-0.7-1.9-1.3-3-1.8c-0.6-0.3-1.2-0.5-1.8-0.7c-0.6-0.2-1.3-0.3-1.9-0.4c-0.7-0.1-1.4-0.1-2-0.1c-0.7,0-1.4,0.1-2.1,0.2
							c-0.7,0.1-1.4,0.3-2,0.5c-0.7,0.2-1.3,0.5-1.9,0.8c-0.6,0.3-1.2,0.7-1.7,1.1c-0.5,0.4-1,0.8-1.4,1.2c-0.9,0.9-1.6,1.8-2.2,2.8
							c-0.6,1-1,1.9-1.3,2.8c-0.6,1.8-0.7,3.4-0.7,4.4c0,1.1,0.1,1.7,0,1.7c-0.1,0-0.3-0.6-0.4-1.7c-0.1-1.1-0.1-2.7,0.4-4.7
							c0.3-1,0.7-2,1.2-3c0.6-1,1.3-2.1,2.2-3c0.5-0.5,1-0.9,1.5-1.4c0.6-0.4,1.2-0.8,1.8-1.2c0.6-0.3,1.3-0.7,2-0.9
							c0.7-0.2,1.4-0.4,2.2-0.6c0.8-0.1,1.5-0.2,2.3-0.2c0.8,0,1.5,0,2.2,0.1c0.7,0.1,1.4,0.3,2.1,0.5c0.7,0.2,1.3,0.5,1.9,0.7
							c1.2,0.6,2.3,1.3,3.1,2.1c0.9,0.8,1.6,1.6,2.2,2.4c1.2,1.6,1.7,3.2,2,4.2C225.8,151,225.8,151.6,225.7,151.6z"/>
					</g>
				</g>
			</g>
			<g>
				<g>
					<g>
						<path class="st7" d="M215,161.9l0.4,2.4l-2.1,0.3l-0.4-2.3c-2.1,0.2-4.2-0.1-5.5-0.8l0.7-2.8c1.2,0.6,2.8,0.9,4.3,0.8
							l-0.6-3.5c-2.4-0.2-5.2-0.6-5.6-3.6c-0.4-2.2,1-4.4,4.2-5.3l-0.4-2.3l2.1-0.3l0.4,2.3c1.6-0.1,3.2,0,4.5,0.6l-0.6,2.8
							c-1.2-0.4-2.3-0.6-3.4-0.6l0.6,3.6c2.4,0.2,5.1,0.5,5.6,3.5C219.5,158.8,218.2,160.9,215,161.9z M211.4,152.9l-0.5-3
							c-1.1,0.4-1.4,1.1-1.3,1.8C209.7,152.4,210.4,152.7,211.4,152.9z M215.8,157.4c-0.1-0.7-0.8-1-1.7-1.2l0.5,2.9
							C215.5,158.7,215.9,158.1,215.8,157.4z"/>
					</g>
				</g>
			</g>
		</g>
		<g>
			<g>
				<g>
					<g>
						<path class="st10" d="M200.6,350.7c1,6.9-3.8,13.3-10.7,14.3c-6.9,1-13.3-3.8-14.3-10.6c-1-6.9,3.8-13.3,10.7-14.3
							C193.2,339,199.6,343.8,200.6,350.7z"/>
					</g>
				</g>
				<g>
					<path class="st11" d="M197.7,351.1c0.8,5.2-2.9,10.1-8.1,10.9c-5.3,0.8-10.1-2.9-10.9-8.1c-0.8-5.2,2.9-10.1,8.1-10.9
						C192,342.2,196.9,345.8,197.7,351.1z"/>
				</g>
				<g>
					<g>
						<path class="st7" d="M197.6,350.8c-0.1,0-0.2-0.4-0.4-1.1c-0.3-0.7-0.7-1.7-1.5-2.8c-0.4-0.5-0.9-1.1-1.5-1.5
							c-0.6-0.5-1.3-0.9-2.1-1.3c-0.4-0.2-0.8-0.3-1.3-0.5c-0.4-0.1-0.9-0.2-1.4-0.3c-0.5-0.1-0.9-0.1-1.4-0.1c-0.5,0-1,0.1-1.5,0.1
							c-0.5,0.1-1,0.2-1.4,0.4c-0.5,0.2-0.9,0.4-1.3,0.6c-0.4,0.2-0.8,0.5-1.2,0.7c-0.4,0.3-0.7,0.6-1,0.9c-0.6,0.6-1.1,1.3-1.5,1.9
							c-0.4,0.7-0.7,1.3-0.9,2c-0.4,1.3-0.5,2.4-0.5,3.1c0,0.8,0,1.2,0,1.2c0,0-0.2-0.4-0.3-1.2c-0.1-0.8-0.1-1.9,0.3-3.3
							c0.2-0.7,0.5-1.4,0.9-2.1c0.4-0.7,0.9-1.5,1.6-2.1c0.3-0.3,0.7-0.7,1.1-1c0.4-0.3,0.8-0.6,1.3-0.8c0.5-0.2,0.9-0.5,1.4-0.6
							c0.5-0.2,1-0.3,1.5-0.4c0.5-0.1,1.1-0.1,1.6-0.2c0.5,0,1,0,1.6,0.1c0.5,0.1,1,0.2,1.5,0.3c0.5,0.1,0.9,0.3,1.3,0.5
							c0.8,0.4,1.6,0.9,2.2,1.4c0.6,0.5,1.1,1.1,1.5,1.7c0.8,1.1,1.2,2.2,1.4,3C197.7,350.4,197.7,350.8,197.6,350.8z"/>
					</g>
				</g>
			</g>
			<g>
				<g>
					<g>
						<path class="st7" d="M190.1,358l0.3,1.7l-1.5,0.2l-0.3-1.6c-1.5,0.1-3-0.1-3.9-0.6l0.5-1.9c0.8,0.4,2,0.7,3,0.6l-0.4-2.5
							c-1.7-0.1-3.6-0.4-4-2.5c-0.3-1.6,0.7-3.1,3-3.7l-0.3-1.6l1.5-0.2l0.3,1.6c1.1-0.1,2.2,0,3.1,0.4l-0.4,1.9
							c-0.8-0.3-1.6-0.4-2.4-0.4l0.4,2.5c1.7,0.1,3.6,0.4,3.9,2.5C193.2,355.8,192.3,357.3,190.1,358z M187.5,351.7l-0.3-2.1
							c-0.8,0.3-1,0.8-0.9,1.3C186.4,351.4,186.9,351.6,187.5,351.7z M190.6,354.9c-0.1-0.5-0.6-0.7-1.2-0.8l0.3,2
							C190.5,355.8,190.7,355.3,190.6,354.9z"/>
					</g>
				</g>
			</g>
		</g>
		<g>
			<g>
				<g>
					<path class="st12" d="M197.8,227.8l-37.6,7.2c-3.9,0.8-7.8-1.8-8.5-5.8l-4-20.7c-0.8-3.9,1.8-7.8,5.8-8.5l37.6-7.2
						c3.9-0.8,7.8,1.8,8.5,5.8l4,20.7C204.3,223.2,201.7,227,197.8,227.8z"/>
				</g>
			</g>
			<g class="st8">
				
					<rect x="148" y="203.9" transform="matrix(0.9822 -0.1881 0.1881 0.9822 -35.9308 36.5031)" class="st9" width="52.9" height="7.5"/>
			</g>
			<g>
				<g>
					<g>
						<path class="st10" d="M174.4,224.1c0,0.1-4.2,1-9.4,2c-5.2,1-9.5,1.7-9.5,1.7c0-0.1,4.2-1,9.4-2
							C170.1,224.8,174.4,224,174.4,224.1z"/>
					</g>
				</g>
			</g>
			<g>
				<g>
					<g>
						<path class="st10" d="M178.1,221.7c0,0.1-5.1,1.1-11.4,2.3c-6.3,1.2-11.5,2.1-11.5,2s5.1-1.1,11.4-2.3
							C172.9,222.5,178,221.6,178.1,221.7z"/>
					</g>
				</g>
			</g>
		</g>
		<path class="st9" d="M209.9,308.7l-3.6,0.7c-0.7,0.1-1.4-0.3-1.6-1.1l-0.7-3.6c-0.1-0.7,0.3-1.4,1.1-1.6l3.6-0.7
			c0.7-0.1,1.4,0.3,1.6,1.1l0.7,3.6C211.1,307.8,210.6,308.5,209.9,308.7z"/>
	</g>
	<path class="st13" d="M235.4,289.6c0,0,2.6,52.3,18.8,109.8h44.3L235.4,289.6z"/>
	<path class="st14" d="M255.7,262.9c-11.1-6.1-14.2-21.1-6.1-30.8c0.8-0.9,1.7-1.9,2.6-2.8c12.4-12.4,4.7-24.8,2.9-53.3
		c-1.7-28.5,30-36.2,30-36.3c1.5-0.4,4.4-4.6,5.6-5.7c14.3-12.4,34.8-11.5,50.5-2c7.5,4.5,15,11.4,19,19.4
		c6.4,12.6,7.6,29.2,18.4,39c15.4,14,32.4,25.9,31.8,48.4c-0.2,8-2.2,16.5-7.1,22.9c-4.3,5.6-10.7,9.4-16.6,13
		c-9.5,5.9-19.5,11.1-30.2,14.6c-10.3,3.4-20.7,6.4-31.1,9.3c-1,0.3-2,0.5-3,0.8L255.7,262.9z"/>
	<path class="st15" d="M328.2,250.6c37.2-12.8,57.5,28.9,85.3,110.3l26.8,7.2l-3.1,29l-9.8,2l-79.7,0.3L328.2,250.6z"/>
	<rect x="79.2" y="389.8" class="st3" width="566.4" height="19.5"/>
	<polygon class="st15" points="275.8,244.6 359.1,265.4 394.1,370.3 277.1,373.8 269.4,296.3 	"/>
	<path class="st16" d="M278.7,289.6c20.5,20.6,15.9,50.8,33.4,53.8c11.6,2,44.5,6.7,60.2,13.2c3.2,1.3,11.9,7.8,10.6,13.6
		c-0.9,3.7-12.6,0.7-12.6,0.7l-87.4-8.8l-18.5-42.8L278.7,289.6z"/>
	<path class="st17" d="M350.6,365.2c0.6-0.9,13.1-3.4,14.5-3.2c4.7,0.6,7.2,4.3,8.3,7.1l-18.5,9.8L350.6,365.2z"/>
	<path class="st17" d="M364.5,289.5l2.2,4.9c0.7,1.6,1.4,3.3,2.1,4.9c1.3,3.3,2.6,6.7,3.8,10c2.4,6.7,4.6,13.5,6.6,20.4
		c2,6.9,3.8,13.8,5.3,20.7c0.8,3.5,1.5,7,2.1,10.5c0.6,3.5,1.2,7,1.6,10.6l-0.5,0.1c-0.6-3.5-1.3-7-2-10.5c-0.7-3.5-1.5-7-2.3-10.4
		c-1.6-6.9-3.5-13.8-5.4-20.7c-1.9-6.8-4.1-13.6-6.4-20.4c-1.1-3.4-2.4-6.7-3.6-10.1c-0.6-1.7-1.2-3.3-1.9-5l-2-5L364.5,289.5z"/>
	<g>
		<path class="st18" d="M431.1,382.9c0,0-3.5,4.1-14.6,0.1c-5.2,0.6-14.9,0.1-33.3-2.9c0,0,6.7,4.7,21.8,5.5c0,0-0.6,4.5-8.6,4.3
			c-9.6-0.2-10.7-0.8-19.5-0.5c-1.8,0.1-5.7,0-9.9-0.1c-7.4-0.2-15.7-0.6-15.7-0.6l-7.3-13l14.6-7c4.5-1.7,6.7-2.4,8.9-2.7
			c9.4-1.3,15.3-2.4,22.1-1.2C396.9,366,419.8,373.6,431.1,382.9z"/>
	</g>
	<path class="st4" d="M367.4,389l-0.4,0.2c-7.4-0.2-15.7-0.6-15.7-0.6l-7.3-13l14.6-7c4.5-1.7,6.7-2.4,8.9-2.7
		C362,368.1,357.6,373.8,367.4,389z"/>
	<path class="st15" d="M310.1,250.5c-18.9-3.9-65.1-7.1-78,16.8c-10.6,19.7,16,85.5,27.5,108.7c4.7,9.5,18.5,14.3,23.9,14.3
		l76.1-0.4c-5.1-1.2-11.7-28.6,5.5-27.9l-63-8.8c-2.5-0.3-4.6-1.7-6-3.8c-0.9-1.4-2-3.1-2.5-5.1l-17.9-65.5L310.1,250.5z"/>
	<polygon class="st1" points="478.4,390.2 404.2,390.2 404.2,383.2 478.8,383.2 	"/>
	<g>
		<polygon class="st19" points="541.1,390.2 451.6,390.2 484.2,294.7 573.8,294.7 		"/>
		<path class="st9" d="M519.9,347.6c-2.7,4.4-7.9,6.2-11.8,4.3c-0.2-0.1-0.5-0.2-0.7-0.4c-4-2.5-4.9-8.3-2-12.9
			c2.9-4.6,8.5-6.4,12.5-3.9c1.2,0.8,2.1,1.8,2.7,3C522.1,340.5,521.9,344.3,519.9,347.6z"/>
		<path class="st20" d="M519.9,347.6c-2.7,4.4-9.5,7.6-14.2,2.4c10.3,0.9,13.7-5.8,13.5-14.3C522.7,339.5,521.9,344.3,519.9,347.6z"
			/>
	</g>
	<g>
		<path class="st14" d="M389.5,364.5c3.8,0.6,7.5,1.6,11.1,2.8c3.6,1.1,7.2,2.5,10.8,4c3.5,1.4,7,3.1,10.4,5c3.3,1.9,6.6,4,9.5,6.5
			l-0.3,0.4c-1.5-1.1-3.1-2.2-4.7-3.2c-1.6-1-3.3-1.9-5-2.8c-3.4-1.7-6.8-3.4-10.3-4.8c-3.5-1.5-7-2.8-10.6-4.1
			c-1.8-0.6-3.6-1.2-5.4-1.8c-1.8-0.6-3.6-1.1-5.5-1.5L389.5,364.5z"/>
		<path class="st14" d="M388,382.1l4,1.1c1.3,0.4,2.7,0.7,4,0.9c1.3,0.3,2.7,0.5,4.1,0.7c1.4,0.2,2.7,0.3,4.1,0.5l0.5,0l0,0.4
			c0.1,0.5,0,1-0.1,1.5c-0.1,0.5-0.4,0.9-0.8,1.3c-0.4,0.3-0.8,0.5-1.3,0.6c-0.2,0.1-0.5,0.1-0.7,0.1l-0.7,0v-0.5l0.6-0.1
			c0.2-0.1,0.4-0.1,0.6-0.2c0.4-0.1,0.7-0.3,0.9-0.6c0.2-0.3,0.4-0.6,0.5-0.9c0.1-0.3,0.1-0.7,0-1l0.5,0.4c-2.8-0.1-5.6-0.4-8.4-1
			c-1.4-0.3-2.7-0.7-4.1-1.2c-1.3-0.5-2.6-1-3.9-1.6L388,382.1z"/>
		<path class="st14" d="M384.6,372.5c3.2,0.4,6.5,0.7,9.7,1.1c3.2,0.4,6.5,0.7,9.7,1.2c3.2,0.5,6.4,1.1,9.6,1.7
			c3.2,0.6,6.4,1.2,9.6,1.8l0.8,0.2l-0.3,0.7c-0.2,0.5-0.4,1.1-0.8,1.7c-0.2,0.3-0.5,0.5-0.7,0.8c-0.3,0.2-0.5,0.4-0.8,0.6
			c-1.2,0.7-2.4,0.9-3.7,1.2c-2.5,0.4-4.9,0.4-7.4,0.3c-1.2,0-2.4-0.1-3.7-0.2c-1.2-0.1-2.4-0.2-3.6-0.3c-2.4-0.3-4.8-0.6-7.2-0.9
			l0.1-0.5c2.4,0.2,4.8,0.5,7.3,0.6c1.2,0.1,2.4,0.2,3.6,0.2c1.2,0.1,2.4,0.1,3.6,0.1c2.4,0,4.8,0,7.2-0.4c1.1-0.2,2.3-0.5,3.2-1
			c0.2-0.1,0.4-0.3,0.6-0.5c0.2-0.2,0.4-0.4,0.5-0.6c0.3-0.4,0.4-0.9,0.7-1.6l0.4,0.9c-6.4-1.2-12.8-2.5-19.2-3.6
			c-3.2-0.6-6.4-1-9.6-1.4c-3.2-0.4-6.5-0.9-9.7-1.5L384.6,372.5z"/>
	</g>
	<line class="st21" x1="79.2" y1="389.8" x2="645.6" y2="389.8"/>
	<path class="st17" d="M300.8,275.3c2.8,1.9,5.8,3.2,9,4c3.2,0.7,6.5,0.9,9.8,0.4c3.2-0.5,6.3-1.8,9-3.7c2.6-1.9,4.7-4.6,6.2-7.5
		l0.4,0.2c-0.3,0.8-0.7,1.5-1.1,2.3c-0.4,0.7-0.9,1.4-1.4,2.2c-0.5,0.7-1.1,1.3-1.7,2c-0.6,0.6-1.3,1.2-1.9,1.7
		c-2.7,2.1-6,3.5-9.4,4.1c-3.4,0.5-6.9,0.3-10.2-0.6c-3.3-0.9-6.4-2.5-9-4.6L300.8,275.3z"/>
	<path class="st17" d="M278.9,289.6l4.2,14.1l4.1,14.1l4,14.1l2,7.1l1,3.5c0.3,1.2,0.6,2.4,1.1,3.4c0.9,2.1,2.8,3.7,4.8,4.8
		c2.1,1.1,4.5,1.8,6.8,2.3c2.4,0.5,4.8,0.9,7.2,1.2l7.3,1l14.6,2l14.6,2.1l-0.1,0.5l-14.6-1.7l-14.6-1.8l-7.3-0.9
		c-2.4-0.3-4.9-0.6-7.3-1.2c-2.4-0.5-4.8-1.2-7.1-2.3c-2.2-1.1-4.4-2.9-5.4-5.4c-0.2-0.3-0.3-0.6-0.4-0.9c-0.1-0.3-0.2-0.6-0.3-0.9
		l-0.5-1.8l-1-3.5l-2-7.1l-3.9-14.2l-3.9-14.2l-3.8-14.2L278.9,289.6z"/>
	<g>
		<path class="st18" d="M326.2,220.9L330,253c1.1,9.6-9,17.6-19.2,14.9c-5.8-1.5-11.9-5.6-18.2-11.6c-1.3-1.2-2.1-2.9-2.3-4.6
			l-4-38.7L326.2,220.9z"/>
		<path class="st22" d="M326.7,225.2l2,17.5c-8.3,1.3-19.9-3.3-31.7-19L326.7,225.2z"/>
		<path class="st18" d="M347.1,197.7c-0.5,5.8-1.4,11.9-3,17.4c-2.8,9.2-7.6,16.6-15.8,18c-24.3,4-41.9-20.1-41.9-20.1l-2.8-32.9
			l14.7-25.4l32.8-1l16,18.9C347,172.7,348.2,184.6,347.1,197.7z"/>
		<path class="st14" d="M282.7,192.6c13-1,16-12,16.9-26.3c0,0,35.3-8.7,47.9,16.4l9.5,1l-28.8-38.2l-44.8,5.3l-8.8,29.1
			L282.7,192.6z"/>
		<path class="st18" d="M289.6,188.3c-1.5-1.7-3.8-2.6-6.1-2.3c-8.7,1-10.2,12.5-8.2,17.4c3,7.3,11,9.5,11,9.5l6.9-7.3
			C293.8,198.1,292.9,192,289.6,188.3z"/>
		<path class="st23" d="M289.8,221.8c4.8,13.5,19.4,51.8-4.5,50.8c-11.5-0.5-21.7-22.8-38.1-18.6c1.8-0.9,3.9-1.7,6.1-2.4
			L289.8,221.8z"/>
		<path class="st14" d="M286.3,213c4.6,8.8,17.5,52.1-4.5,49.6c-10.6-1.2-13.2-14-28.6-11L286.3,213z"/>
		<g>
			<path class="st22" d="M287.1,196.3c0-1-0.3-2-0.8-2.7c-0.5-0.8-1.2-1.4-2-1.8c-0.8-0.4-1.7-0.4-2.5-0.1c-0.8,0.3-1.6,1-2.3,1.7
				l-0.5-0.3c0.4-1,1.1-2.1,2.3-2.7c0.3-0.1,0.6-0.3,0.9-0.3c0.3-0.1,0.6-0.1,1-0.1l0.5,0l0.5,0.1c0.3,0.1,0.6,0.2,0.9,0.3
				c1.1,0.5,2.1,1.5,2.6,2.6c0.5,1.1,0.6,2.4,0.2,3.5L287.1,196.3z"/>
			<path class="st22" d="M333.6,191.4c0.1,2.2,1.4,4,2.9,3.9c1.5-0.1,2.7-1.9,2.6-4.1c-0.1-2.2-1.4-4-2.9-3.9
				C334.7,187.3,333.5,189.1,333.6,191.4z"/>
			<path class="st22" d="M309.5,192.2c0.1,2.2,1.4,4,2.9,3.9c1.5-0.1,2.7-1.9,2.6-4.1c-0.1-2.2-1.4-4-2.9-3.9
				C310.6,188.1,309.4,190,309.5,192.2z"/>
			<path class="st22" d="M333.3,214.1c-1.1,1.3-2.3,2.6-4,3.4c-1.7,0.8-3.7,0.9-5.5,0.4c-1.8-0.5-3.3-1.5-4.6-2.5
				c-1.4-1.1-2.5-2.3-3.6-3.6l0.5-0.5c1.4,1,2.7,2,4,2.8c1.4,0.9,2.7,1.7,4.2,2.1c1.4,0.4,2.9,0.4,4.3-0.1c1.4-0.5,2.7-1.5,4.1-2.4
				L333.3,214.1z"/>
			<path class="st22" d="M341.7,184.5c-1.1-0.7-2.1-1.4-3.1-1.9c-1-0.4-2-0.7-3-0.6c-1,0.1-2.1,0.5-3.1,0.9
				c-1.1,0.5-2.1,1.1-3.4,1.6l-0.3-0.3c0.7-1.2,1.5-2.2,2.6-3c1.1-0.8,2.5-1.5,4-1.6c1.5-0.1,3.1,0.4,4.2,1.3c1.1,0.9,2,2,2.5,3.3
				L341.7,184.5z"/>
			<path class="st22" d="M317.6,185.3c-1.2-0.8-2.3-1.5-3.5-1.8c-1.2-0.4-2.4-0.5-3.6-0.4c-1.2,0.1-2.4,0.5-3.6,1
				c-1.2,0.5-2.4,1.1-3.7,1.8l-0.3-0.3c0.7-1.3,1.8-2.4,3-3.2c1.2-0.9,2.8-1.4,4.4-1.6c1.6-0.2,3.3,0.2,4.6,1c1.4,0.8,2.5,2,3,3.3
				L317.6,185.3z"/>
			<path class="st24" d="M294.3,207.7c0.2,4.9,4.3,8.7,9.1,8.5c4.9-0.2,8.7-4.3,8.5-9.1c-0.2-4.9-4.3-8.7-9.1-8.5
				C297.9,198.7,294.1,202.8,294.3,207.7z"/>
			<path class="st24" d="M347.1,197.7c-0.5,5.8-1.4,11.9-3,17.4c-3.7-0.9-6.5-4.2-6.7-8.3c-0.2-4.9,3.6-9,8.5-9.1
				C346.3,197.7,346.7,197.7,347.1,197.7z"/>
			<path class="st24" d="M323.6,189.6c0-0.4,0.6-0.5,0.7-0.1c2,6.4,8.4,11.2,7.4,13c-0.7,1.3-3.4,2.8-5.3,3.8
				c-1,0.5-2.2-0.1-2.4-1.2C323,200.4,323.1,195.1,323.6,189.6z"/>
			<path class="st22" d="M325,189c0.4,1.9,1.3,3.6,2.3,5.2c1.1,1.6,2.3,3.1,3.5,4.7c0.3,0.4,0.6,0.8,0.9,1.2
				c0.3,0.4,0.6,0.9,0.8,1.5c0.1,0.3,0.2,0.7,0.1,1.2c-0.1,0.6-0.4,0.8-0.6,1c-0.4,0.5-0.8,0.8-1.3,1.1c-1.8,1.2-3.6,1.9-5.6,2.5
				l-0.3-0.7c0.8-0.5,1.7-1,2.5-1.5c0.8-0.5,1.6-1,2.4-1.6c0.4-0.3,0.7-0.6,0.9-0.9c0.1-0.1,0.2-0.3,0.2-0.3c0,0,0-0.1-0.1-0.3
				c-0.3-0.7-0.9-1.5-1.5-2.2c-1.2-1.6-2.5-3.2-3.4-5c-1-1.8-1.7-3.9-1.7-5.9L325,189z"/>
		</g>
		<g>
			<path class="st22" d="M278.6,215.4c-0.6,1.2-0.7,2.6-0.7,3.9c0.1,1.3,0.4,2.7,0.9,3.9c1.1,2.5,2.5,5,3.7,7.5
				c1.3,2.5,2.4,5.2,2.9,8.1c0.2,1.4,0.3,2.9,0.2,4.4c-0.1,0.7-0.2,1.5-0.4,2.2c-0.2,0.7-0.5,1.5-0.8,2.1c-0.7,1.4-1.7,2.6-3.1,3.4
				c-1.3,0.9-3,1.2-4.5,1.1c-1.6-0.2-2.9-0.8-4.2-1.3c-1.3-0.5-2.6-1.1-3.9-1.7c-2.6-1.1-5.1-2.2-7.8-2.7c-1.3-0.2-2.7-0.3-4,0
				c-0.6,0.2-1.2,0.5-1.7,0.9c-0.5,0.4-1,0.9-1.3,1.5l-0.5-0.3c0.4-0.6,0.8-1.3,1.4-1.7c0.6-0.5,1.3-0.9,2-1.1
				c1.4-0.5,3-0.4,4.4-0.3c2.9,0.4,5.6,1.5,8.2,2.5l3.9,1.6c1.3,0.5,2.6,1,3.8,1.2c1.2,0.1,2.5-0.2,3.5-0.9c1.1-0.7,1.9-1.7,2.5-2.8
				c0.3-0.6,0.5-1.2,0.7-1.8c0.2-0.6,0.2-1.3,0.3-2c0.1-1.3,0.1-2.7-0.2-4c-0.4-2.7-1.5-5.3-2.6-7.8c-1.2-2.6-2.5-5-3.5-7.7
				c-0.5-1.4-0.8-2.8-0.8-4.3c0-1.5,0.3-3,1-4.3L278.6,215.4z"/>
			<path class="st22" d="M279.1,141.6c2.4-1.1,4.9-1.8,7.4-2.5c2.5-0.7,5.1-1.2,7.6-1.6c2.6-0.4,5.2-0.7,7.8-0.7c1.3,0,2.6,0,3.9,0
				c1.3,0.1,2.6,0.2,3.9,0.5l-0.1,0.6c-1.3,0-2.5-0.1-3.8,0c-1.3,0-2.5,0.1-3.8,0.2c-2.5,0.2-5.1,0.5-7.6,0.9
				c-2.5,0.4-5,0.8-7.6,1.3c-1.3,0.2-2.5,0.5-3.7,0.8c-1.3,0.3-2.5,0.6-3.7,1L279.1,141.6z"/>
			<path class="st22" d="M299.5,166.1c1.1-0.6,2.2-0.9,3.3-1.2c1.1-0.3,2.3-0.5,3.4-0.6c2.3-0.3,4.6-0.4,6.9-0.4
				c4.6,0,9.2,0.6,13.7,1.9c4.5,1.2,8.8,3.2,12.5,6c1.8,1.4,3.5,3,5,4.9c1.4,1.8,2.6,3.8,3.5,6l-0.6,0.3c-2.2-4-5.1-7.4-8.8-10
				c-1.8-1.3-3.7-2.4-5.8-3.4c-2-0.9-4.2-1.7-6.3-2.3c-4.3-1.3-8.8-1.8-13.3-2c-2.3-0.1-4.5,0-6.8,0.2c-2.2,0.2-4.5,0.5-6.5,1.3
				L299.5,166.1z"/>
		</g>
	</g>
	<g>
		<polygon class="st11" points="521,156.1 535,156.1 523.8,83.7 509.8,83.7 		"/>
		<polygon class="st10" points="535,156.1 549,156.1 537.8,83.7 523.8,83.7 		"/>
		<g>
			<rect x="554.3" y="122.8" class="st11" width="51.7" height="33.2"/>
			<rect x="569.2" y="133.6" class="st9" width="21.9" height="5.8"/>
		</g>
		<rect x="485.5" y="61.8" class="st10" width="24.3" height="94.3"/>
		<rect x="472.4" y="156.1" class="st11" width="145.6" height="10.5"/>
	</g>
	<g>
		<g>
			<path class="st15" d="M179.7,61.4h-31.9c-17,0-30.7-13.8-30.7-30.7v0c0-17,13.8-30.7,30.7-30.7l31.9,0c17,0,30.7,13.8,30.7,30.7
				v0C210.5,47.7,196.7,61.4,179.7,61.4z"/>
			<g>
				<rect x="128.9" y="15.4" class="st25" width="69.7" height="5.8"/>
				<rect x="128.9" y="27.8" class="st6" width="69.7" height="5.8"/>
				<rect x="128.9" y="40.2" class="st6" width="69.7" height="5.8"/>
			</g>
		</g>
		<polygon class="st26" points="126.4,122.6 113.2,112.2 139.7,112.2 		"/>
		<path class="st26" d="M137,113.3h-31.9c-17,0-30.7-13.8-30.7-30.7v0c0-17,13.8-30.7,30.7-30.7H137c17,0,30.7,13.8,30.7,30.7v0
			C167.8,99.5,154,113.3,137,113.3z"/>
		<g class="st27">
			<rect x="94.2" y="86.9" class="st9" width="9" height="11.2"/>
			<rect x="108.7" y="74.4" class="st9" width="9" height="23.6"/>
			<rect x="123.8" y="79.8" class="st9" width="9" height="18.2"/>
			<rect x="139" y="67" class="st9" width="9" height="31"/>
		</g>
	</g>
</g>
</svg>
