<svg id="Layer_1" data-name="Layer 1" xmlns="http://www.w3.org/2000/svg" viewBox="0 0 684.02 151.25"><defs><style>.cls-1{fill:#fff;}.cls-2{fill:#ee779e;}</style></defs><g id="Group_5" data-name="Group 5"><path id="Path_1" data-name="Path 1" class="cls-1" d="M75.76,127.32a68,68,0,0,1-.79,11,22,22,0,0,1-2.37,7.37,11.28,11.28,0,0,1-3.42,4.21,8.82,8.82,0,0,1-4.47,1.31,7.81,7.81,0,0,1-3.94-1.31,15.87,15.87,0,0,1-4.21-3.16,19.83,19.83,0,0,1-3.16-3.68,6.94,6.94,0,0,1-1.31-3.42,2,2,0,0,1,.26-1.32c.26-.26.26-.26.79-.26a2,2,0,0,1,1,.26c.53,0,.79.27,1.32.27,1.84,0,3.15-1,3.94-3.42a35.08,35.08,0,0,0,1.32-10.78V16.58a92.08,92.08,0,0,0-17.36,3.16A40.84,40.84,0,0,0,28.68,27.1,35.06,35.06,0,0,0,18.42,39.73C15.79,45,14.74,51.3,14.74,58.93a34,34,0,0,0,1,9.2,49.22,49.22,0,0,0,2.63,7.36,42.6,42.6,0,0,0,3.68,5.79c1.32,1.58,2.63,3.16,3.95,4.47,1.05-.26,1.84-.26,2.37.26a3.22,3.22,0,0,1,.78,2.37,10.41,10.41,0,0,1-.78,3.94A16.26,16.26,0,0,1,26.31,96a14.93,14.93,0,0,1-2.89,2.89A5.82,5.82,0,0,1,20,100a3.31,3.31,0,0,1-1.58-.27c-.52,0-1.05-.53-1.58-.79a29.57,29.57,0,0,1-5-5,44.93,44.93,0,0,1-5.52-8.68A48.2,48.2,0,0,1,1.85,73.39,50.51,50.51,0,0,1,0,58.92a58.05,58.05,0,0,1,5.26-25A53.84,53.84,0,0,1,19.73,15.78a72.87,72.87,0,0,1,22.1-11A104.49,104.49,0,0,1,70,1.05h8.42c3.42,0,6.58,0,10,.27,3.42,0,6.31,0,8.94.26h5.26a5.15,5.15,0,0,0,2.1-.26c.53-.27,1.06-.27,1.32-.53s.53-.26.79-.53.26-.26.52-.26.53.26.79.53l.79,1.57a5,5,0,0,1,.53,2.1c0,.8.26,1.59.26,2.37a20.89,20.89,0,0,1-.52,3.69,13.47,13.47,0,0,1-1.32,3.41A5.12,5.12,0,0,1,105.49,16a7.56,7.56,0,0,1-3.42,1.05H98.12a53.1,53.1,0,0,1-6.31-.26q-3.82.06-7.63-.26a67.15,67.15,0,0,1-7.37-.26v111Z"/><path id="Path_2" data-name="Path 2" class="cls-1" d="M154.67,130.74a7.21,7.21,0,0,0,5-2.1,20.93,20.93,0,0,0,3.68-5.26,53.91,53.91,0,0,0,2.63-6.84,35.9,35.9,0,0,0,1.58-6.84,12.1,12.1,0,0,1,1.84-4.47,3.88,3.88,0,0,1,5.26-.53,7,7,0,0,1,2.1,1.84,5.41,5.41,0,0,1,1.58,2.63,5.65,5.65,0,0,1,.53,2.89v.53a1,1,0,0,1-.27.79,66,66,0,0,1-3.42,10.26,31.94,31.94,0,0,1-5.52,9.73,27.1,27.1,0,0,1-8.16,7.36,21.6,21.6,0,0,1-11,2.9,19.53,19.53,0,0,1-8.94-2.1,18.3,18.3,0,0,1-6.05-5.79,26.43,26.43,0,0,1-7.1,5.79,19.79,19.79,0,0,1-9.73,2.37,20.82,20.82,0,0,1-10-2.37,24.07,24.07,0,0,1-7.37-6.32,31.36,31.36,0,0,1-4.47-9.46,40.86,40.86,0,0,1-1.58-11.58,56.83,56.83,0,0,1,4-21.83,52,52,0,0,1,10.25-16.57,48.78,48.78,0,0,1,14.73-10.52,43.83,43.83,0,0,1,17.36-3.68,10.93,10.93,0,0,1,6.58,2.1,7.86,7.86,0,0,1,2.36,6,9.07,9.07,0,0,1-.52,3.42,1.76,1.76,0,0,1-1.84,1,12.2,12.2,0,0,1-2.89-.26c-1.06,0-1.85-.27-2.9-.27A30.1,30.1,0,0,0,131,76a30.85,30.85,0,0,0-10.26,7.37A42.27,42.27,0,0,0,113.11,96a53.37,53.37,0,0,0-2.9,18.15c0,5.26,1.05,9.21,2.9,11.84a9.11,9.11,0,0,0,8.15,4.2,8.53,8.53,0,0,0,6.58-2.89,24.3,24.3,0,0,0,4.21-7.1v-30a5.56,5.56,0,0,0-.27-2.36c0-.53-.26-1.06-.26-1.59s-.26-.78-.26-1.31v-1a2.52,2.52,0,0,1,1.58-2.37,7.69,7.69,0,0,1,3.68-.79c3.16,0,5.79.79,7.63,2.63a7.87,7.87,0,0,1,2.89,6v32.09a13.41,13.41,0,0,0,.26,3.16,9.4,9.4,0,0,0,1.06,2.89,7.77,7.77,0,0,0,2.1,2.1A11.77,11.77,0,0,0,154.67,130.74Z"/><path id="Path_3" data-name="Path 3" class="cls-1" d="M183.34,121.79v2.11a9.51,9.51,0,0,0,.52,2.89,5.57,5.57,0,0,0,1.58,2.63,3.59,3.59,0,0,0,2.9,1.05,7.18,7.18,0,0,0,5-2.1,20.93,20.93,0,0,0,3.68-5.26,53.91,53.91,0,0,0,2.63-6.84c.79-2.37,1.31-4.73,1.84-6.84a7.87,7.87,0,0,1,1.84-4.21,5.57,5.57,0,0,1,2.63-1.58,6.93,6.93,0,0,1,2.89.79,6.81,6.81,0,0,1,2.37,2.37A7.27,7.27,0,0,1,212.8,110a6.37,6.37,0,0,1,.26,3.15c-.79,3.16-2.1,6.58-3.42,10.26a32.24,32.24,0,0,1-5.52,9.73,29.93,29.93,0,0,1-7.89,7.37,21.63,21.63,0,0,1-11,2.89,13.82,13.82,0,0,1-6.84-1.58,19.53,19.53,0,0,1-5.26-3.95,20.42,20.42,0,0,1-3.15-5.78,20.14,20.14,0,0,1-1.06-7.1V72.87a12.53,12.53,0,0,0-.52-3.94,7.76,7.76,0,0,1-.53-2.37,2.54,2.54,0,0,1,1.58-2.37,7.57,7.57,0,0,1,3.68-.79c3.16,0,5.79.79,7.63,2.63a7.88,7.88,0,0,1,2.9,6v49.71Z"/><path id="Path_4" data-name="Path 4" class="cls-1" d="M244.89,110a8.88,8.88,0,0,1,1.84-4.21,3.68,3.68,0,0,1,2.63-1.32,4.44,4.44,0,0,1,2.89.79,9.37,9.37,0,0,1,3.95,5,6.61,6.61,0,0,1,.26,3.15,73.82,73.82,0,0,1-3.68,9.2,44.92,44.92,0,0,1-6.32,10,36.45,36.45,0,0,1-8.94,7.9,22.09,22.09,0,0,1-11.83,3.15,24.11,24.11,0,0,1-10-1.84,17.86,17.86,0,0,1-7.1-5.26,27.09,27.09,0,0,1-4.48-8.16,32.83,32.83,0,0,1-1.57-10.51V29a38.77,38.77,0,0,1,1.31-10,22,22,0,0,1,3.68-7.89,18.55,18.55,0,0,1,5.79-5.26A12.67,12.67,0,0,1,220.16,4a16,16,0,0,1,7.36,1.57,12.27,12.27,0,0,1,4.74,4.21,17.05,17.05,0,0,1,2.9,5.79,28.66,28.66,0,0,1,1.57,6.84,65.21,65.21,0,0,1,.53,6.83v6.05a101.82,101.82,0,0,1-1.32,15,147.11,147.11,0,0,1-3.42,15.52c-1.31,5-2.89,10-4.47,14.73a126.35,126.35,0,0,1-4.73,12.36c-1.58,3.68-2.9,6.58-3.95,8.94a15,15,0,0,1-2.37,4v11.31a18.48,18.48,0,0,0,2.37,9.73c1.58,2.63,4.21,3.68,7.89,3.68a12,12,0,0,0,6.32-2.1,25,25,0,0,0,5.26-5.26,28.57,28.57,0,0,0,3.68-6.84A26.25,26.25,0,0,0,244.89,110ZM217,80.5a36.09,36.09,0,0,0,2.11-5.26A60.6,60.6,0,0,0,221,67.87q.78-3.95,1.58-8.68c.52-2.89,1.05-5.78,1.31-8.68s.79-5.52.79-8.15a60.53,60.53,0,0,0,.27-6.31c0-6.58-.53-11.32-1.32-14.2-1.05-2.9-2.1-4.48-3.68-4.48a1.45,1.45,0,0,0-1.31.79A11.25,11.25,0,0,0,217.53,20a7.9,7.9,0,0,0-.53,2.63c0,1.05-.26,1.84-.26,2.63V80.5Z"/><path id="Path_5" data-name="Path 5" class="cls-1" d="M328.27,107.33a7.62,7.62,0,0,0-1.85-2.89,7.18,7.18,0,0,0-2.89-1.32,5.26,5.26,0,0,0-2.89,0,8.16,8.16,0,0,0-2.64,1c-.78.52-1.31,1-1.31,1.84a12,12,0,0,1-2.1,5.53l0,.08a22.81,22.81,0,0,1-2.25,3.57c2.25,1,3.6,3.34,3.6,6.58,0,6.62-4.59,7.82-10,7.82h-1.36V131a24.91,24.91,0,0,0,8.72-1.57,20.82,20.82,0,0,0,6.28-3.69,6.72,6.72,0,0,0,.57-.52,18.86,18.86,0,0,0,5-6.06,22.45,22.45,0,0,0,2.89-7.37A9.11,9.11,0,0,0,328.27,107.33Z"/><path id="Path_6" data-name="Path 6" class="cls-1" d="M312.3,115.2c-.06.08-.12.17-.19.25a3.61,3.61,0,0,1,.65.24,5.55,5.55,0,0,1,1.27.74A5.06,5.06,0,0,0,312.3,115.2Z"/><path id="Path_7" data-name="Path 7" class="cls-1" d="M314.05,116.45l0,0a5.77,5.77,0,0,0-1.27-.74,3.91,3.91,0,0,0-.65-.24c-.13.19-.27.38-.41.55a16.2,16.2,0,0,1-4.21,3.16,10.44,10.44,0,0,1-4.1,1l-.29,0q-.54,0-1.14,0h-1.84a2.6,2.6,0,0,1-.83-.16,7.53,7.53,0,0,1-.71-.27l-.3-.09a58,58,0,0,0,2.11-10.27,74.53,74.53,0,0,0,.79-10.77,68.35,68.35,0,0,0-1.31-13.15,46.22,46.22,0,0,0-3.69-10.26,20.61,20.61,0,0,0-5.26-6.85A10.64,10.64,0,0,0,284.34,66a11.76,11.76,0,0,0-6.85,1.84,15.32,15.32,0,0,0-5,5,26.43,26.43,0,0,0-2.89,7.37,30.22,30.22,0,0,0-1.06,8.67,53.87,53.87,0,0,0,3.68,19.73,38.47,38.47,0,0,0,10.54,15A18.69,18.69,0,0,1,278,128.9a11.24,11.24,0,0,1-6.84,2.1,9.47,9.47,0,0,1-5.26-1.58,15.79,15.79,0,0,1-4.48-4.73,25.75,25.75,0,0,1-3.15-7.63,43.41,43.41,0,0,1-1.06-10.78A80.18,80.18,0,0,1,258.3,93.9a50.11,50.11,0,0,1,2.37-8.67,25.89,25.89,0,0,1,2.89-6c1.05-1.58,1.84-2.89,2.62-4.22a4.58,4.58,0,0,0,2.37-3.41,8.59,8.59,0,0,0-.26-4.47,10.1,10.1,0,0,0-2.36-3.95,4.67,4.67,0,0,0-3.42-1.57c-1.06,0-2.89,1-5,3.16a40.38,40.38,0,0,0-6.57,9.2,68.75,68.75,0,0,0-5.78,14.47,61.46,61.46,0,0,0-2.64,19.19,58.49,58.49,0,0,0,1.59,14,33.18,33.18,0,0,0,5.26,11.57,23.4,23.4,0,0,0,8.94,7.9,28.2,28.2,0,0,0,12.88,2.89c5.78,0,10.52-1.3,14.2-3.94a29.6,29.6,0,0,0,9.47-10.27,21.46,21.46,0,0,0,4.48,1,28.7,28.7,0,0,0,5,.28h.22v-1.42h1.36c5.4,0,10-1.19,10-7.82A7.51,7.51,0,0,0,314.05,116.45Zm-27.34-6a39.65,39.65,0,0,1-7.37-22.62q0-9.08,3.16-9.47a2.8,2.8,0,0,1,2.37,1.84A15.07,15.07,0,0,1,286.18,85a29.83,29.83,0,0,1,.78,7.35c.27,2.89.27,5.79.27,9.21,0,2.9-.27,5.79-.52,8.95Z"/><path id="Path_8" data-name="Path 8" class="cls-1" d="M359.3,143.62a22,22,0,0,1-7.1-1.05,18.44,18.44,0,0,1-6.58-3.68,22.65,22.65,0,0,1-4.73-6.84c-1.32-2.89-1.84-6.31-1.84-10.78a78.86,78.86,0,0,1,2.63-20A180,180,0,0,1,349,78.13H332c0,1.84-.26,4.21-.26,7.37q-.4,4.34-.79,9.47a66.48,66.48,0,0,1-1.58,10,49.82,49.82,0,0,1-2.37,9.46c-.52,2.1-1.58,3.16-2.89,3.42a5.45,5.45,0,0,1-3.95-.79,8,8,0,0,1-3.15-3.42,6,6,0,0,1-.53-4.73,42.89,42.89,0,0,0,1.32-7.1c.26-2.89.79-5.79.79-8.94.26-3.16.52-6.32.52-9.47s.27-6.05.27-8.42a22.76,22.76,0,0,1-6.05-5,11.77,11.77,0,0,1-2.37-7.37,8.35,8.35,0,0,1,.79-3.68A12,12,0,0,1,313.8,56a9.66,9.66,0,0,1,6.84-2.37,20.79,20.79,0,0,1,3.68.53A6.29,6.29,0,0,1,327.74,56a11.27,11.27,0,0,1,2.89,3.15,17.61,17.61,0,0,1,2.11,5c1.58.27,2.89.27,3.95.53,1.05,0,2.1.26,2.89.26h13.67A5.73,5.73,0,0,1,355.88,66,27.27,27.27,0,0,1,359,68.67a11.7,11.7,0,0,1,2.63,3.68,4.73,4.73,0,0,1,.79,3.68,15.36,15.36,0,0,1-.79,2.9c-.52,1.57-1.05,3.41-1.57,5.52s-1.32,4.73-2.1,7.63a91.85,91.85,0,0,0-2.1,9.2c-.53,3.15-1.06,6.57-1.58,10a65.56,65.56,0,0,0-.79,10,20.07,20.07,0,0,0,.52,3.94,13,13,0,0,0,1.32,3.42,5.14,5.14,0,0,0,2.37,2.37,7.24,7.24,0,0,0,3.41.79,9.24,9.24,0,0,0,5.79-2.1,16.45,16.45,0,0,0,3.95-5.26,53.91,53.91,0,0,0,2.63-6.84,36.47,36.47,0,0,0,1.57-6.84,8.87,8.87,0,0,1,1.85-4.47,3.9,3.9,0,0,1,5.26-.53,14.52,14.52,0,0,1,2.36,1.84,5.41,5.41,0,0,1,1.58,2.63,5.67,5.67,0,0,1,.53,2.9v1.31c-.79,3.16-2.1,6.58-3.42,10.26a32.36,32.36,0,0,1-5.52,9.73,30.09,30.09,0,0,1-7.89,7.37A36.26,36.26,0,0,1,359.3,143.62Z"/><g id="Group_3" data-name="Group 3"><g id="Group_2" data-name="Group 2"><path id="Path_9" data-name="Path 9" class="cls-2" d="M449.36,43.66a13.09,13.09,0,0,0-.29-3.8,5.68,5.68,0,0,1-.3-2c0-.88.59-1.47,1.47-2a5.84,5.84,0,0,1,3.21-.88,12.13,12.13,0,0,1,7.3,2.34,7.23,7.23,0,0,1,2.63,5.55v58.44a40.39,40.39,0,0,0,7-1.75,49,49,0,0,0,7.89-3.8,71,71,0,0,0,7.89-6.14,39.82,39.82,0,0,0,7-8.47,42.59,42.59,0,0,0,5-11.1,50.52,50.52,0,0,0,1.75-13.73,33,33,0,0,0-1.75-10.52,39.37,39.37,0,0,0-5-9.94,25,25,0,0,0-9.06-7.3c-3.8-2-8.18-2.92-13.44-2.92a48.43,48.43,0,0,0-18.41,3.21,34.09,34.09,0,0,0-12.56,9.06,36.78,36.78,0,0,0-7,12.86,55,55,0,0,0-2.34,15.49,46.62,46.62,0,0,0,.87,9.93,30.08,30.08,0,0,0,2.34,6.72,14.42,14.42,0,0,0,2.34,3.8c.59.88,1.17,1.17,1.17,1.46.88-.29,1.75-.29,2.05.3a4.3,4.3,0,0,1,.58,2,13.06,13.06,0,0,1-.88,3.8,14.17,14.17,0,0,1-2.33,4.68,8.42,8.42,0,0,1-3.22,3.21,3.62,3.62,0,0,1-3.8-.29c-.58-.58-1.75-1.75-3.21-3.51a44.6,44.6,0,0,1-4.39-6.72,58.91,58.91,0,0,1-3.8-10.22,49.07,49.07,0,0,1-1.75-13.74c0-8.47,1.17-16.07,3.8-22.79a54.44,54.44,0,0,1,11.1-17.53,47.44,47.44,0,0,1,16.95-11.1,58.32,58.32,0,0,1,21.91-3.8,49.61,49.61,0,0,1,17.83,3.22,40.2,40.2,0,0,1,13.73,9,39.5,39.5,0,0,1,8.77,13.74A48.24,48.24,0,0,1,513.34,56a58.13,58.13,0,0,1-4.08,21.61,59.7,59.7,0,0,1-11.1,17.53A62.44,62.44,0,0,1,482.09,108a68.21,68.21,0,0,1-19,7v23.67a3.74,3.74,0,0,1-1.46,3.21,6.19,6.19,0,0,1-3.51.88c-1.17,0-2-.29-3.21-.29a8.74,8.74,0,0,1-2.92-1.17,5.89,5.89,0,0,1-2.05-1.76,2.64,2.64,0,0,1-.88-2V43.66Z"/><path id="Path_10" data-name="Path 10" class="cls-2" d="M584.94,76.68c0-3.51-.29-7-.58-10.81h-3.22a39.45,39.45,0,0,1-10.52-1.46,25.36,25.36,0,0,1-14.31-11.69,19.06,19.06,0,0,1-2-9.35,17.17,17.17,0,0,1,1.17-6.72,21.37,21.37,0,0,1,3.21-5.55,31.59,31.59,0,0,1,5-3.8,16.23,16.23,0,0,1,6.72-1.46,21.51,21.51,0,0,1,8.77,1.75,19.38,19.38,0,0,1,6.72,5,27.72,27.72,0,0,1,5.26,7.3,79.21,79.21,0,0,1,3.8,8.77,16.75,16.75,0,0,0,2.63-2.05A9.93,9.93,0,0,0,599.84,44c.59-1.46,1.17-2.34,2-2.34a3.87,3.87,0,0,1,2,.88,8,8,0,0,1,1.76,2.34A10.84,10.84,0,0,1,607.15,48a14.89,14.89,0,0,1,.58,3.51,7.17,7.17,0,0,1-2.92,5.84,28.28,28.28,0,0,1-7.3,4.67c.29,2.63.58,5,.88,7.3a56,56,0,0,1,.29,6.73c0,11.4-1.17,21-3.51,29.51-2.34,8.18-5.26,15.2-9.06,20.45a41,41,0,0,1-12.86,12,31.58,31.58,0,0,1-15.19,3.8,31.2,31.2,0,0,1-17.24-4.67,39.55,39.55,0,0,1-12.56-12.57,63.89,63.89,0,0,1-7.6-18.7A92.66,92.66,0,0,1,518,83.39a118.25,118.25,0,0,1,2.63-26.59,98,98,0,0,1,6.72-19.86,55.41,55.41,0,0,1,8.76-13.74,50.1,50.1,0,0,1,9.06-8.76,32,32,0,0,1,7-4.68c2-.88,2.93-1.46,3.22-1.46S556,8,556.31,8h1.16a4.75,4.75,0,0,1,2.63.87,7.92,7.92,0,0,1,2,2.34,12.3,12.3,0,0,1,1.17,2.92,12,12,0,0,1,.29,3.22,8.35,8.35,0,0,1-.59,2.92,1.61,1.61,0,0,1-1.75,1.17,1.1,1.1,0,0,1-.88-.29c-1.17.58-2.33,1.46-4.38,2.63a37,37,0,0,0-5.84,4.67,89,89,0,0,0-6.43,7.3,62,62,0,0,0-5.84,10.81,85.5,85.5,0,0,0-4.39,15.2,104.08,104.08,0,0,0-1.75,20.16,87.09,87.09,0,0,0,2.34,21,52.39,52.39,0,0,0,5.84,14.61,25.51,25.51,0,0,0,8.18,8.48,19,19,0,0,0,9.35,2.63,16.15,16.15,0,0,0,10.23-3.51c3.22-2.34,5.84-5.84,8.18-10.23a66.65,66.65,0,0,0,5.55-16.36C584.36,92.46,584.94,84.86,584.94,76.68ZM582.6,53.31a29.92,29.92,0,0,0-1.75-5.56,15.68,15.68,0,0,0-2.34-4.38,10.09,10.09,0,0,0-3.21-2.92,8.25,8.25,0,0,0-3.8-1.17A4,4,0,0,0,568,40.74a5.57,5.57,0,0,0-.87,2.92,6.61,6.61,0,0,0,.87,3.22,8.36,8.36,0,0,0,2.34,3.21,13.76,13.76,0,0,0,4.09,2.34,19.37,19.37,0,0,0,6.14.87Z"/><path id="Path_11" data-name="Path 11" class="cls-2" d="M642.21,143.89a28.17,28.17,0,0,1-9.35-1.17A18,18,0,0,1,627,139.8a13.3,13.3,0,0,1-2.92-2.93,4.45,4.45,0,0,1-.88-1.75,18.24,18.24,0,0,1,.58-3.51,33.35,33.35,0,0,1,1.76-3.21,18.26,18.26,0,0,1,2.34-2.63c.87-.58,1.45-1.17,2-1.17.88,0,1.46.59,2,1.46l.87.88a12.91,12.91,0,0,0,2,1.46,16.31,16.31,0,0,0,3.21,1.46,17.5,17.5,0,0,0,4.38.58A12,12,0,0,0,655.07,119c0-.38,0-.75,0-1.13a15.73,15.73,0,0,0-1.76-7.3,22.77,22.77,0,0,0-5-5.84,70.53,70.53,0,0,0-7-5.26c-2.63-1.76-5.26-3.51-8.18-5.27A73.88,73.88,0,0,1,625,88.08a41.77,41.77,0,0,1-7-7.3,36.05,36.05,0,0,1-5-9.35,38,38,0,0,1-1.75-12,32.83,32.83,0,0,1,2-11.69,59,59,0,0,1,5.56-11.4,54.28,54.28,0,0,1,8.47-9.93,55.93,55.93,0,0,1,10.52-8.18,61.08,61.08,0,0,1,11.69-5.56,45.16,45.16,0,0,1,12.27-2,23.23,23.23,0,0,1,9.35,1.75,17.37,17.37,0,0,1,7,4.68,17,17,0,0,1,4.39,7.3A24.41,24.41,0,0,1,684,33.73a29.71,29.71,0,0,1-1.76,9.93,37.58,37.58,0,0,1-4.67,9.06,58,58,0,0,1-6.43,7.89c-2.34,2.34-5,4.38-7.3,6.43a37.6,37.6,0,0,1-7.3,4.09,18.25,18.25,0,0,1-6.43,1.46,8.14,8.14,0,0,1-4.38-1.17,13.8,13.8,0,0,1-3.22-2.63,22.2,22.2,0,0,1-2-3.5,7,7,0,0,1-.59-3.22c0-.87,0-1.16.3-1.46a1.07,1.07,0,0,1,.87-.29,3.16,3.16,0,0,1,1.46.29,4.23,4.23,0,0,0,2,.3,16.68,16.68,0,0,0,8.18-2.64,42.76,42.76,0,0,0,8.47-6.42,50.2,50.2,0,0,0,6.73-8.77A18.76,18.76,0,0,0,670.57,34a11.59,11.59,0,0,0-2.34-7.3c-1.46-1.75-4.09-2.62-7.6-2.62a22.31,22.31,0,0,0-7.3,1.16,46,46,0,0,0-7.89,3.51,33.71,33.71,0,0,0-7.6,5.55,48.54,48.54,0,0,0-6.43,7A29,29,0,0,0,627,49.81a25.36,25.36,0,0,0-1.76,9.35A24.16,24.16,0,0,0,627,68.51a25.09,25.09,0,0,0,5,7.3A35.42,35.42,0,0,0,639,82c2.63,1.75,5.26,3.8,8.18,5.55,2.63,1.75,5.55,3.8,8.18,5.55a49.12,49.12,0,0,1,7,6.43,27.76,27.76,0,0,1,5,7.89,26.11,26.11,0,0,1,1.75,9.93,24.65,24.65,0,0,1-2,10.23A28.27,28.27,0,0,1,661.5,136a23.57,23.57,0,0,1-8.47,5.55A27.43,27.43,0,0,1,642.21,143.89Z"/></g></g><g id="Group_4" data-name="Group 4"><path id="Path_12" data-name="Path 12" class="cls-2" d="M192.45,29a14.33,14.33,0,1,0-11.59,16.62A14.34,14.34,0,0,0,192.45,29Zm-9.21,7.82a2.56,2.56,0,1,1,2.08-3,2.56,2.56,0,0,1-2.08,3Zm-2.14-12a2.57,2.57,0,1,1-2.07,3h0a2.59,2.59,0,0,1,2.06-3Zm-7.65,1.37a2.57,2.57,0,1,1-2.06,3v0a2.54,2.54,0,0,1,2-3Zm2.14,12a2.56,2.56,0,1,1,2.08-3,2.57,2.57,0,0,1-2.08,3Z"/><path id="Path_13" data-name="Path 13" class="cls-2" d="M189.77,29.5A11.6,11.6,0,1,0,180.39,43a11.6,11.6,0,0,0,9.38-13.46Zm-18.38-.29a2.54,2.54,0,0,1,2-3h0a2.57,2.57,0,1,1-2.06,3Zm4.2,9a2.56,2.56,0,1,1,2.08-3,2.57,2.57,0,0,1-2.08,3ZM179,27.85a2.57,2.57,0,1,1,3,2.08h0A2.57,2.57,0,0,1,179,27.85Zm4.21,9a2.56,2.56,0,1,1,2.08-3,2.56,2.56,0,0,1-2.08,3Z"/></g></g></svg>