<?xml version="1.0" encoding="utf-8"?>
<!-- Generator: Adobe Illustrator 26.5.0, SVG Export Plug-In . SVG Version: 6.00 Build 0)  -->
<svg version="1.1" id="Layer_1" xmlns="http://www.w3.org/2000/svg" xmlns:xlink="http://www.w3.org/1999/xlink" x="0px" y="0px"
	 viewBox="0 0 24 24" style="enable-background:new 0 0 24 24;" xml:space="preserve">
<style type="text/css">
	.st0{fill:#A33DFF;}
</style>
<path class="st0" d="M19.6,2.2h-2.2V1.1C17.5,0.5,17,0,16.4,0c-0.6,0-1.1,0.5-1.1,1.1v1.1H8.7V1.1C8.7,0.5,8.2,0,7.6,0
	S6.5,0.5,6.5,1.1v1.1H4.4c-1.8,0-3.3,1.5-3.3,3.3v15.3c0,1.8,1.5,3.3,3.3,3.3h15.3c1.8,0,3.3-1.5,3.3-3.3V5.5
	C22.9,3.6,21.4,2.2,19.6,2.2z M4.4,4.4h2.2v1.1c0,0.6,0.5,1.1,1.1,1.1s1.1-0.5,1.1-1.1V4.4h6.5v1.1c0,0.6,0.5,1.1,1.1,1.1
	c0.6,0,1.1-0.5,1.1-1.1V4.4h2.2c0.6,0,1.1,0.5,1.1,1.1v3.3H3.3V5.5C3.3,4.9,3.8,4.4,4.4,4.4z M19.6,21.8H4.4c-0.6,0-1.1-0.5-1.1-1.1
	v-9.8h17.5v9.8C20.7,21.3,20.2,21.8,19.6,21.8z"/>
</svg>
