<?xml version="1.0" encoding="utf-8"?>
<!-- Generator: Adobe Illustrator 26.5.0, SVG Export Plug-In . SVG Version: 6.00 Build 0)  -->
<svg version="1.1" id="Layer_1" xmlns="http://www.w3.org/2000/svg" xmlns:xlink="http://www.w3.org/1999/xlink" x="0px" y="0px"
	 viewBox="0 0 24 24" style="enable-background:new 0 0 24 24;" xml:space="preserve">
<style type="text/css">
	.st0{fill:#A33DFF;}
</style>
<g>
	<path class="st0" d="M23.9,11.5C23.9,11.5,23.9,11.5,23.9,11.5L20.1,4c-0.6-1.1-1.7-1.8-2.9-1.8H6.8C5.6,2.2,4.4,2.9,3.9,4
		l-3.8,7.5c0,0,0,0,0,0C0,11.7,0,11.8,0,12v6.5c0,1.8,1.5,3.3,3.3,3.3h17.5c1.8,0,3.3-1.5,3.3-3.3V12C24,11.8,24,11.7,23.9,11.5z
		 M5.8,5C5.8,5,5.8,5,5.8,5c0.2-0.4,0.6-0.6,1-0.6h10.4c0.4,0,0.8,0.2,1,0.6l3,5.9H2.9L5.8,5z M20.7,19.6H3.3
		c-0.6,0-1.1-0.5-1.1-1.1v-5.5h19.6v5.5C21.8,19.1,21.3,19.6,20.7,19.6z"/>
	<path class="st0" d="M5.5,15.3L5.5,15.3c-0.6,0-1.1,0.5-1.1,1.1s0.5,1.1,1.1,1.1s1.1-0.5,1.1-1.1S6.1,15.3,5.5,15.3z"/>
	<path class="st0" d="M9.8,15.3L9.8,15.3c-0.6,0-1.1,0.5-1.1,1.1s0.5,1.1,1.1,1.1c0.6,0,1.1-0.5,1.1-1.1S10.4,15.3,9.8,15.3z"/>
</g>
</svg>
