<?xml version="1.0" encoding="utf-8"?>
<!-- Generator: Adobe Illustrator 26.5.0, SVG Export Plug-In . SVG Version: 6.00 Build 0)  -->
<svg version="1.1" id="Layer_1" xmlns="http://www.w3.org/2000/svg" xmlns:xlink="http://www.w3.org/1999/xlink" x="0px" y="0px"
	 viewBox="0 0 24 24" style="enable-background:new 0 0 24 24;" xml:space="preserve">
<style type="text/css">
	.st0{fill:#A33DFF;}
</style>
<path class="st0" d="M21.4,14.4h-5L17,9.6h4.4c0.7,0,1.2-0.5,1.2-1.2c0-0.7-0.5-1.2-1.2-1.2h-4.2l0.6-5.8c0.1-0.6-0.4-1.2-1-1.3
	c-0.6-0.1-1.2,0.4-1.3,1l-0.7,6h-4.7l0.6-5.8c0.1-0.6-0.4-1.2-1-1.3c-0.6-0.1-1.2,0.4-1.3,1l-0.7,6H2.6c-0.7,0-1.2,0.5-1.2,1.2
	c0,0.7,0.5,1.2,1.2,1.2h5L7,14.4H2.6c-0.7,0-1.2,0.5-1.2,1.2c0,0.7,0.5,1.2,1.2,1.2h4.2l-0.6,5.8c-0.1,0.6,0.4,1.2,1,1.3
	c0,0,0.1,0,0.1,0c0.6,0,1.1-0.4,1.2-1l0.7-6h4.7l-0.6,5.8c-0.1,0.6,0.4,1.2,1,1.3c0,0,0.1,0,0.1,0c0.6,0,1.1-0.4,1.2-1l0.7-6h5.2
	c0.7,0,1.2-0.5,1.2-1.2C22.6,14.9,22.1,14.4,21.4,14.4z M9.4,14.4l0.5-4.7h4.7l-0.5,4.7H9.4z"/>
</svg>
