<?xml version="1.0" encoding="utf-8"?>
<!-- Generator: Adobe Illustrator 26.5.0, SVG Export Plug-In . SVG Version: 6.00 Build 0)  -->
<svg version="1.1" id="Layer_1" xmlns="http://www.w3.org/2000/svg" xmlns:xlink="http://www.w3.org/1999/xlink" x="0px" y="0px"
	 viewBox="0 0 24 24" style="enable-background:new 0 0 24 24;" xml:space="preserve">
<style type="text/css">
	.st0{fill:#A33DFF;}
</style>
<path class="st0" d="M22.3,6.3c0-0.1,0-0.2-0.1-0.2C22.1,6,22,5.9,21.9,5.8C21.7,5.5,21.4,5.2,21,5l-7.4-4.2c-1-0.6-2.2-0.6-3.2,0
	L7,2.7c-0.2,0-0.4,0.1-0.5,0.3L3,5C2.6,5.2,2.3,5.5,2.1,5.8C2,5.9,1.9,6,1.8,6.1c0,0.1-0.1,0.2-0.1,0.2C1.5,6.7,1.4,7.2,1.4,7.7v8.5
	C1.4,17.3,2,18.4,3,19l7.4,4.2c0.3,0.2,0.7,0.3,1.1,0.4c0.2,0.1,0.3,0.2,0.5,0.2c0.2,0,0.4-0.1,0.5-0.2c0.4-0.1,0.7-0.2,1.1-0.4
	L21,19c1-0.6,1.6-1.6,1.6-2.8V7.7C22.6,7.2,22.5,6.7,22.3,6.3z M11.5,2.5c0.2-0.1,0.3-0.1,0.5-0.1c0.2,0,0.4,0,0.5,0.1l6.9,3.9
	L16.8,8L9.4,3.7L11.5,2.5z M12,10.7L4.6,6.5l2.7-1.5l7.4,4.3L12,10.7z M4,17.1c-0.3-0.2-0.5-0.5-0.5-0.9V8.3l7.4,4.3v8.5L4,17.1z
	 M20,17.1l-6.9,3.9v-8.5l7.4-4.3v7.9C20.5,16.6,20.3,16.9,20,17.1z"/>
</svg>
