<?xml version="1.0" encoding="utf-8"?>
<!-- Generator: Adobe Illustrator 26.5.0, SVG Export Plug-In . SVG Version: 6.00 Build 0)  -->
<svg version="1.1" id="Layer_1" xmlns="http://www.w3.org/2000/svg" xmlns:xlink="http://www.w3.org/1999/xlink" x="0px" y="0px"
	 viewBox="0 0 24 24" style="enable-background:new 0 0 24 24;" xml:space="preserve">
<style type="text/css">
	.st0{fill:#A33DFF;}
</style>
<g>
	<path class="st0" d="M7.2,6h15.6C23.5,6,24,5.5,24,4.8s-0.5-1.2-1.2-1.2H7.2C6.5,3.6,6,4.1,6,4.8S6.5,6,7.2,6z"/>
	<path class="st0" d="M22.8,10.8H7.2C6.5,10.8,6,11.3,6,12c0,0.7,0.5,1.2,1.2,1.2h15.6c0.7,0,1.2-0.5,1.2-1.2
		C24,11.3,23.5,10.8,22.8,10.8z"/>
	<path class="st0" d="M22.8,18H7.2C6.5,18,6,18.5,6,19.2c0,0.7,0.5,1.2,1.2,1.2h15.6c0.7,0,1.2-0.5,1.2-1.2C24,18.5,23.5,18,22.8,18
		z"/>
	<path class="st0" d="M1.2,3.6L1.2,3.6C0.5,3.6,0,4.1,0,4.8S0.5,6,1.2,6s1.2-0.5,1.2-1.2S1.9,3.6,1.2,3.6z"/>
	<path class="st0" d="M1.2,10.8L1.2,10.8C0.5,10.8,0,11.3,0,12c0,0.7,0.5,1.2,1.2,1.2s1.2-0.5,1.2-1.2C2.4,11.3,1.9,10.8,1.2,10.8z"
		/>
	<path class="st0" d="M1.2,18L1.2,18C0.5,18,0,18.5,0,19.2c0,0.7,0.5,1.2,1.2,1.2s1.2-0.5,1.2-1.2C2.4,18.5,1.9,18,1.2,18z"/>
</g>
</svg>
