<?xml version="1.0" encoding="utf-8"?>
<!-- Generator: Adobe Illustrator 26.5.0, SVG Export Plug-In . SVG Version: 6.00 Build 0)  -->
<svg version="1.1" id="Layer_1" xmlns="http://www.w3.org/2000/svg" xmlns:xlink="http://www.w3.org/1999/xlink" x="0px" y="0px"
	 viewBox="0 0 24 24" style="enable-background:new 0 0 24 24;" xml:space="preserve">
<style type="text/css">
	.st0{fill:#A33DFF;}
</style>
<g>
	<path class="st0" d="M23,2H1C0.4,2,0,2.4,0,3v5c0,0.6,0.4,1,1,1h1v12c0,0.6,0.4,1,1,1h18c0.6,0,1-0.4,1-1V9h1c0.6,0,1-0.4,1-1V3
		C24,2.4,23.6,2,23,2z M20,20H4V9h16V20z M22,7H2V4h20V7z"/>
	<path class="st0" d="M10,13h4c0.6,0,1-0.4,1-1c0-0.6-0.4-1-1-1h-4c-0.6,0-1,0.4-1,1C9,12.6,9.4,13,10,13z"/>
</g>
</svg>
