<?xml version="1.0" encoding="utf-8"?>
<!-- Generator: Adobe Illustrator 26.5.0, SVG Export Plug-In . SVG Version: 6.00 Build 0)  -->
<svg version="1.1" id="Layer_1" xmlns="http://www.w3.org/2000/svg" xmlns:xlink="http://www.w3.org/1999/xlink" x="0px" y="0px"
	 viewBox="0 0 24 24" style="enable-background:new 0 0 24 24;" xml:space="preserve">
<style type="text/css">
	.st0{fill:#A33DFF;}
</style>
<g>
	<path class="st0" d="M21.4,23.8c-0.7,0-1.2-0.5-1.2-1.2v-2.4c0-2-1.6-3.5-3.5-3.5H7.3c-2,0-3.5,1.6-3.5,3.5v2.4
		c0,0.7-0.5,1.2-1.2,1.2s-1.2-0.5-1.2-1.2v-2.4c0-3.3,2.6-5.9,5.9-5.9h9.4c3.3,0,5.9,2.6,5.9,5.9v2.4C22.6,23.3,22.1,23.8,21.4,23.8
		z"/>
	<path class="st0" d="M12,12c-3.3,0-5.9-2.6-5.9-5.9S8.7,0.2,12,0.2s5.9,2.6,5.9,5.9S15.3,12,12,12z M12,2.6c-2,0-3.5,1.6-3.5,3.5
		S10,9.6,12,9.6s3.5-1.6,3.5-3.5S14,2.6,12,2.6z"/>
</g>
</svg>
