<svg id="Layer_1" data-name="Layer 1" xmlns="http://www.w3.org/2000/svg" viewBox="0 0 24 24"><defs><style>.cls-1{fill:none;}.cls-2{fill:#010101;}</style></defs><path class="cls-1" d="M0,0H24V24H0Z"/><path class="cls-2" d="M11.81,24a1.71,1.71,0,0,1-.56-.44,47.55,47.55,0,0,1-6.06-8.7A16.61,16.61,0,0,1,3.5,10.4,8.4,8.4,0,0,1,5,3.53,8.29,8.29,0,0,1,10.35.16a8.42,8.42,0,0,1,8.34,3,8.31,8.31,0,0,1,2,6.12,12,12,0,0,1-1,3.76,34.19,34.19,0,0,1-3.89,6.67c-1,1.34-2,2.62-3,3.86a1.21,1.21,0,0,1-.59.43ZM12,13.06A4.38,4.38,0,1,0,7.63,8.62,4.39,4.39,0,0,0,12,13.06Z"/></svg>