<?xml version="1.0" encoding="utf-8"?>
<!-- Generator: Adobe Illustrator 26.0.3, SVG Export Plug-In . SVG Version: 6.00 Build 0)  -->
<svg version="1.1" id="Layer_1" xmlns="http://www.w3.org/2000/svg" xmlns:xlink="http://www.w3.org/1999/xlink" x="0px" y="0px"
	 viewBox="0 0 24 24" style="enable-background:new 0 0 24 24;" xml:space="preserve">
<style type="text/css">
	.st0{fill:none;}
</style>
<path class="st0" d="M0,0h24v24H0V0z"/>
<path d="M24,17.9v4.7c0,0.7-0.5,1.3-1.2,1.3c-0.6,0-1.1,0.1-1.4,0.1C9.6,24,0,14.4,0,2.7c0-0.4,0-0.8,0.1-1.4C0.1,0.5,0.7,0,1.4,0
	h4.7c0.3,0,0.6,0.3,0.7,0.6c0,0.3,0.1,0.6,0.1,0.7C7.1,3.2,7.7,5,8.5,6.7c0.1,0.3,0,0.6-0.2,0.8L5.4,9.5c1.8,4.1,5,7.4,9.1,9.1
	l2.1-2.9c0.2-0.2,0.5-0.3,0.8-0.2c1.7,0.8,3.5,1.3,5.3,1.6c0.2,0,0.4,0.1,0.7,0.1C23.7,17.3,24,17.6,24,17.9L24,17.9z"/>
</svg>
