<?xml version="1.0" encoding="utf-8"?>
<!-- Generator: Adobe Illustrator 26.5.0, SVG Export Plug-In . SVG Version: 6.00 Build 0)  -->
<svg version="1.1" id="Layer_1" xmlns="http://www.w3.org/2000/svg" xmlns:xlink="http://www.w3.org/1999/xlink" x="0px" y="0px"
	 viewBox="0 0 24 24" style="enable-background:new 0 0 24 24;" xml:space="preserve">
<style type="text/css">
	.st0{fill:#A33DFF;}
</style>
<g>
	<path id="Vector_00000058546937038671169840000006005378204409484983_" class="st0" d="M12,23.3c-0.3,0-0.7-0.1-0.9-0.2
		c-2.5-1.3-5.3-2.2-8.1-2.6H2.7c-1.5-0.2-2.6-1.5-2.7-3V3.8c0-1.7,1.3-3,3-3.1c0.1,0,0.2,0,0.3,0C6.2,1.1,9,2,11.6,3.5l0.3,0.2
		c0.1,0,0.2,0,0.3,0l0.2-0.1c2.5-1.5,5.4-2.4,8.3-2.8h0.1C21.6,0.7,22.4,1,23,1.6s1,1.4,1,2.3v13.5c0,1.5-1.2,2.8-2.7,3h-0.4
		c-2.8,0.5-5.5,1.4-8,2.6C12.6,23.2,12.3,23.3,12,23.3z M3,2.4c-0.3,0-0.7,0.1-0.9,0.4C1.8,3,1.7,3.4,1.7,3.8v13.5
		c0,0.7,0.5,1.3,1.2,1.4h0.3c3,0.5,5.9,1.4,8.6,2.8c0.1,0,0.2,0.1,0.3,0c2.7-1.4,5.6-2.4,8.6-2.8h0.4c0.7-0.1,1.2-0.7,1.2-1.4V3.8
		c0-0.4-0.2-0.8-0.4-1c-0.3-0.3-0.7-0.4-1.1-0.4h-0.1c-2.6,0.3-5.1,1.2-7.4,2.5L13.1,5c-0.6,0.4-1.4,0.4-2.1,0l-0.3-0.2
		c-2.3-1.2-4.9-2-7.5-2.4H3z"/>
	<path id="Vector-2_00000183220251726984856470000014547853009918159791_" class="st0" d="M12,22.3c-0.5,0-0.8-0.4-0.8-0.8V4.7
		c0-0.5,0.4-0.8,0.8-0.8c0.5,0,0.8,0.4,0.8,0.8v16.7C12.8,21.9,12.5,22.3,12,22.3L12,22.3z"/>
	<path id="Vector-3_00000052816310255353436090000014109741952735826099_" class="st0" d="M7.3,8.9H4.7c-0.5,0-0.8-0.4-0.8-0.8
		c0-0.5,0.4-0.8,0.8-0.8h2.5C7.7,7.3,8,7.7,8,8.1C8.1,8.5,7.7,8.9,7.3,8.9z"/>
	<path id="Vector-4_00000147903287446991799560000016615208761186688421_" class="st0" d="M8.1,12.3H4.7c-0.5,0-0.8-0.4-0.8-0.8
		c0-0.5,0.4-0.8,0.8-0.8H8c0.5,0,0.8,0.4,0.8,0.8C8.9,11.9,8.6,12.3,8.1,12.3z"/>
</g>
</svg>
