<?xml version="1.0" encoding="utf-8"?>
<!-- Generator: Adobe Illustrator 26.5.0, SVG Export Plug-In . SVG Version: 6.00 Build 0)  -->
<svg version="1.1" id="Layer_1" xmlns="http://www.w3.org/2000/svg" xmlns:xlink="http://www.w3.org/1999/xlink" x="0px" y="0px"
	 viewBox="0 0 24 24" style="enable-background:new 0 0 24 24;" xml:space="preserve">
<style type="text/css">
	.st0{fill:#A33DFF;}
</style>
<g>
	<path id="Vector" class="st0" d="M12,24c-0.9,0-1.8-0.5-2.3-1.2l-1.1-1.5C8.4,21,8,20.8,7.7,20.8c-0.4,0-0.7,0.1-0.9,0.4l-0.6-0.6
		l0.6,0.6c-1.6,1.7-2.8,1.6-3.4,1.4s-1.6-1-1.6-3.5V6.5c0-5,1.4-6.5,6.1-6.5h8.4c4.7,0,6.1,1.5,6.1,6.5V19c0,2.5-1,3.2-1.6,3.5
		s-1.8,0.4-3.4-1.4c-0.2-0.3-0.6-0.4-0.9-0.4c-0.4,0-0.7,0.2-0.9,0.5l-1.1,1.5C13.8,23.5,12.9,24,12,24z M7.6,19.1L7.6,19.1
		c1,0.1,1.7,0.5,2.2,1.2l1.1,1.5c0.3,0.5,1,0.7,1.5,0.4c0.2-0.1,0.3-0.2,0.4-0.4l1.1-1.5c0.9-1.3,2.6-1.6,3.9-0.7
		c0.2,0.1,0.3,0.3,0.5,0.4c0.8,0.9,1.4,1,1.6,0.9c0.3-0.1,0.6-0.8,0.6-1.9V6.5c0-4-0.7-4.8-4.4-4.8H7.8c-3.7,0-4.4,0.8-4.4,4.8V19
		c0,1.2,0.3,1.8,0.6,1.9c0.2,0.1,0.7,0,1.6-0.9C6.1,19.4,6.8,19.1,7.6,19.1z"/>
	<path id="Vector-2" class="st0" d="M16.5,7.3h-9C7,7.3,6.7,6.9,6.7,6.5c0-0.5,0.4-0.8,0.8-0.8h8.9c0.5,0,0.8,0.4,0.8,0.8
		C17.3,6.9,16.9,7.3,16.5,7.3z"/>
	<path id="Vector-3" class="st0" d="M15.3,11.7H8.7c-0.5,0-0.8-0.4-0.8-0.8c0-0.5,0.4-0.8,0.8-0.8h6.7c0.5,0,0.8,0.4,0.8,0.8
		C16.2,11.3,15.8,11.7,15.3,11.7z"/>
</g>
</svg>
