<?xml version="1.0" encoding="utf-8"?>
<!-- Generator: Adobe Illustrator 26.5.0, SVG Export Plug-In . SVG Version: 6.00 Build 0)  -->
<svg version="1.1" id="Layer_1" xmlns="http://www.w3.org/2000/svg" xmlns:xlink="http://www.w3.org/1999/xlink" x="0px" y="0px"
	 viewBox="0 0 24 24" style="enable-background:new 0 0 24 24;" xml:space="preserve">
<style type="text/css">
	.st0{fill:#A33DFF;}
</style>
<g id="Iconly_Light-outline_3_User" transform="translate(720 96)">
	<g id="_3_User" transform="translate(0 2.5)">
		<path id="_3_User-2" class="st0" d="M-715.5-80.7c0-1.2,0.8-2.3,1.9-2.7c1.7-0.6,3.6-0.9,5.5-0.8h0.3c1.8-0.1,3.5,0.2,5.2,0.8
			c1.5,0.6,2.2,2.2,1.6,3.7c-0.3,0.7-0.8,1.3-1.6,1.6c-1.6,0.6-3.3,0.9-5,0.9h-0.7C-713.2-77.2-715.5-78.3-715.5-80.7z M-713.8-80.7
			c0,1.5,3.1,1.9,5.7,1.9c3.8,0,5.7-0.7,5.7-1.9c0-1.5-3.1-1.9-5.7-1.9C-711.8-82.6-713.8-82-713.8-80.7z M-699.7-80.3
			c-0.1-0.4,0.2-0.9,0.6-1c0.7-0.1,1.2-0.4,1.3-0.6s0.1-0.4,0-0.6s-0.6-0.5-1.3-0.6c-0.5-0.1-0.9-0.2-1.4-0.2s-0.8-0.4-0.8-0.9
			s0.4-0.8,0.9-0.8c0.6,0,1.1,0.1,1.7,0.2c1,0.1,1.9,0.6,2.4,1.5c0.3,0.6,0.3,1.4,0,2c-0.5,0.9-1.4,1.4-2.4,1.5
			C-699.2-79.6-699.6-79.9-699.7-80.3L-699.7-80.3L-699.7-80.3z M-717.3-79.7c-1-0.1-1.9-0.6-2.4-1.5c-0.3-0.6-0.3-1.4,0-2
			c0.5-0.8,1.3-1.4,2.2-1.5h0.2c0.6-0.1,1.1-0.2,1.7-0.2c0.5,0,0.8,0.3,0.9,0.8c0,0.5-0.3,0.8-0.8,0.9c-0.4,0-0.7,0.1-1.1,0.1
			L-717-83c-0.7,0.1-1.2,0.4-1.3,0.6s-0.1,0.4,0,0.6s0.6,0.5,1.3,0.6c0.4,0.1,0.7,0.5,0.7,0.9C-716.5-79.9-716.8-79.6-717.3-79.7
			L-717.3-79.7L-717.3-79.7z M-711.7-87.2c-2-2-2-5.1,0-7.1s5.1-2,7.1,0c0.9,0.9,1.5,2.2,1.5,3.6c0,2.8-2.3,5-5,5
			C-709.3-85.7-710.7-86.2-711.7-87.2z M-710.5-93.1c-1.3,1.3-1.3,3.5,0,4.8s3.5,1.3,4.8,0s1.3-3.5,0-4.8c-0.6-0.6-1.5-1-2.4-1
			S-709.8-93.8-710.5-93.1z M-702.7-87.6c0-0.5,0.4-0.8,0.8-0.8l0,0c1.3,0,2.4-1,2.4-2.3s-1-2.4-2.3-2.4h-0.1
			c-0.5,0-0.8-0.4-0.8-0.8s0.4-0.8,0.8-0.8c2.2-0.1,4,1.7,4.1,3.9s-1.7,4-3.9,4.1c-0.1,0-0.1,0-0.2,0
			C-702.3-86.7-702.8-87.1-702.7-87.6C-702.8-87.6-702.8-87.6-702.7-87.6L-702.7-87.6z M-718.2-90.7c0-2.2,1.8-4,4-4l0,0
			c0.5,0,0.8,0.4,0.8,0.8s-0.4,0.8-0.8,0.8l0,0c-1.3,0-2.4,1-2.4,2.3s1,2.4,2.3,2.4h0.1c0.5,0,0.8,0.4,0.8,0.8
			c0,0.5-0.4,0.8-0.8,0.8C-716.5-86.8-718.2-88.5-718.2-90.7z"/>
	</g>
</g>
</svg>
