<?xml version="1.0" encoding="utf-8"?>
<!-- Generator: Adobe Illustrator 26.5.0, SVG Export Plug-In . SVG Version: 6.00 Build 0)  -->
<svg version="1.1" id="Layer_1" xmlns="http://www.w3.org/2000/svg" xmlns:xlink="http://www.w3.org/1999/xlink" x="0px" y="0px"
	 viewBox="0 0 24 24" style="enable-background:new 0 0 24 24;" xml:space="preserve">
<style type="text/css">
	.st0{fill:#A33DFF;}
</style>
<g>
	<path id="Vector" class="st0" d="M7.5,5C7.1,5,6.7,4.6,6.7,4.2V0.8C6.7,0.4,7.1,0,7.5,0C8,0,8.4,0.4,8.4,0.8v3.3C8.4,4.6,8,5,7.5,5
		z"/>
	<path id="Vector-2" class="st0" d="M16.5,5c-0.5,0-0.8-0.4-0.8-0.8V0.8C15.6,0.4,16,0,16.5,0s0.8,0.4,0.8,0.8v3.3
		C17.3,4.6,16.9,5,16.5,5z"/>
	<path id="Vector-3" class="st0" d="M8.1,14.8c-0.1,0-0.3,0-0.4-0.1s-0.3-0.1-0.4-0.2C7.1,14.3,7,14,7,13.7c0-0.1,0-0.3,0.1-0.4
		c0.1-0.1,0.1-0.3,0.2-0.4c0.1-0.1,0.2-0.2,0.4-0.2c0.4-0.2,0.9-0.1,1.2,0.2c0.2,0.2,0.3,0.5,0.3,0.8c0,0.1,0,0.1,0,0.2
		c0,0.1,0,0.1-0.1,0.2c0,0.1-0.1,0.1-0.1,0.2c0,0.1-0.1,0.1-0.1,0.2C8.7,14.7,8.4,14.8,8.1,14.8z"/>
	<path id="Vector-4" class="st0" d="M12,14.8c-0.1,0-0.3,0-0.4-0.1c-0.1-0.1-0.3-0.1-0.4-0.2c-0.2-0.2-0.3-0.5-0.3-0.8
		c0-0.1,0-0.3,0.1-0.4c0.1-0.1,0.1-0.3,0.2-0.4c0.1-0.1,0.2-0.2,0.4-0.2c0.4-0.2,0.9-0.1,1.2,0.2c0.2,0.2,0.3,0.5,0.3,0.8
		c0,0.1,0,0.1,0,0.2c0,0.1,0,0.1-0.1,0.2c0,0.1-0.1,0.1-0.1,0.2c0,0.1-0.1,0.1-0.1,0.2C12.6,14.7,12.3,14.8,12,14.8z"/>
	<path id="Vector-5_00000064317010696400351670000012532703519743124366_" class="st0" d="M15.9,14.8c-0.1,0-0.3,0-0.4-0.1
		c-0.1-0.1-0.3-0.1-0.4-0.2L15,14.3c0-0.1-0.1-0.1-0.1-0.2c0-0.1-0.1-0.1-0.1-0.2c0-0.1,0-0.1,0-0.2c0-0.3,0.1-0.6,0.3-0.8
		c0.1-0.1,0.2-0.2,0.4-0.2c0.4-0.2,0.9-0.1,1.2,0.2c0.2,0.2,0.3,0.5,0.3,0.8c0,0.1,0,0.1,0,0.2c0,0.1,0,0.1-0.1,0.2
		c0,0.1-0.1,0.1-0.1,0.2c0,0.1-0.1,0.1-0.1,0.2C16.5,14.7,16.2,14.8,15.9,14.8z"/>
	<path id="Vector-6_00000177456179995525649660000007730091196936888467_" class="st0" d="M8.1,18.7c-0.1,0-0.3,0-0.4-0.1
		s-0.3-0.1-0.4-0.2C7.1,18.2,7,17.9,7,17.6c0-0.1,0-0.3,0.1-0.4s0.1-0.3,0.2-0.4c0.4-0.4,1.1-0.4,1.6,0c0.2,0.2,0.3,0.5,0.3,0.8
		s-0.1,0.6-0.3,0.8C8.7,18.6,8.4,18.7,8.1,18.7z"/>
	<path id="Vector-7_00000142143653612050655590000010032313988530944443_" class="st0" d="M12,18.7c-0.3,0-0.6-0.1-0.8-0.3
		c-0.2-0.2-0.3-0.5-0.3-0.8c0-0.1,0-0.3,0.1-0.4s0.1-0.3,0.2-0.4c0.4-0.4,1.1-0.4,1.6,0c0.1,0.1,0.2,0.2,0.2,0.4
		c0.1,0.1,0.1,0.3,0.1,0.4c0,0.3-0.1,0.6-0.3,0.8S12.3,18.7,12,18.7z"/>
	<path id="Vector-8_00000051345251914895121810000009113772597255802813_" class="st0" d="M15.9,18.7c-0.3,0-0.6-0.1-0.8-0.3
		c-0.1-0.1-0.2-0.2-0.2-0.4c-0.1-0.1-0.1-0.3-0.1-0.4s0-0.3,0.1-0.4s0.1-0.3,0.2-0.4c0.3-0.3,0.6-0.4,1-0.3c0.1,0,0.1,0,0.2,0.1
		c0.1,0,0.1,0.1,0.2,0.1s0.1,0.1,0.2,0.1c0.2,0.2,0.3,0.5,0.3,0.8s-0.1,0.6-0.3,0.8C16.5,18.6,16.2,18.7,15.9,18.7z"/>
	<path id="Vector-9" class="st0" d="M21.5,9.6h-19C2,9.6,1.7,9.2,1.7,8.8C1.7,8.3,2.1,8,2.5,8h19c0.5,0,0.8,0.4,0.8,0.8
		C22.3,9.2,21.9,9.6,21.5,9.6z"/>
	<path id="Vector-10" class="st0" d="M16.5,24h-9c-4.1,0-6.4-2.3-6.4-6.4V8.1c0-4.1,2.3-6.4,6.4-6.4h8.9c4.1,0,6.4,2.3,6.4,6.4v9.5
		C22.9,21.7,20.5,24,16.5,24z M7.5,3.3C4.3,3.3,2.8,4.9,2.8,8v9.5c0,3.2,1.6,4.7,4.7,4.7h8.9c3.2,0,4.7-1.6,4.7-4.7V8.1
		c0-3.2-1.6-4.7-4.7-4.7H7.5V3.3z"/>
</g>
</svg>
