<?xml version="1.0" encoding="utf-8"?>
<!-- Generator: Adobe Illustrator 26.5.0, SVG Export Plug-In . SVG Version: 6.00 Build 0)  -->
<svg version="1.1" id="Layer_1" xmlns="http://www.w3.org/2000/svg" xmlns:xlink="http://www.w3.org/1999/xlink" x="0px" y="0px"
	 viewBox="0 0 24 24" style="enable-background:new 0 0 24 24;" xml:space="preserve">
<style type="text/css">
	.st0{fill:#A33DFF;}
</style>
<g>
	<path id="Vector" class="st0" d="M16.5,24h-9c-4.1,0-6.4-2.3-6.4-6.4V6.4C1.1,2.3,3.5,0,7.5,0h8.9c4.1,0,6.4,2.3,6.4,6.4v11.2
		C22.9,21.7,20.5,24,16.5,24z M7.5,1.7c-3.2,0-4.7,1.6-4.7,4.7v11.2c0,3.2,1.6,4.7,4.7,4.7h8.9c3.2,0,4.7-1.6,4.7-4.7V6.4
		c0-3.2-1.6-4.7-4.7-4.7C16.4,1.7,7.5,1.7,7.5,1.7z"/>
	<path id="Vector-2" class="st0" d="M19.3,8.9H17c-1.7,0-3.1-1.4-3.1-3.1l0,0V3.6c0-0.5,0.4-0.8,0.8-0.8c0.5,0,0.8,0.4,0.8,0.8v2.2
		c0,0.8,0.6,1.4,1.4,1.4h2.2c0.5,0,0.8,0.4,0.8,0.8C20.1,8.6,19.7,8.9,19.3,8.9z"/>
	<path id="Vector-3" class="st0" d="M12,14H7.5c-0.5,0-0.8-0.4-0.8-0.8c0-0.5,0.4-0.8,0.8-0.8H12c0.5,0,0.8,0.4,0.8,0.8
		S12.5,14,12,14z"/>
	<path id="Vector-4" class="st0" d="M16.5,18.4h-9c-0.5,0-0.8-0.4-0.8-0.8c0-0.5,0.4-0.8,0.8-0.8h8.9c0.5,0,0.8,0.4,0.8,0.8
		C17.3,18,16.9,18.4,16.5,18.4z"/>
</g>
</svg>
