<?xml version="1.0" encoding="utf-8"?>
<!-- Generator: Adobe Illustrator 26.5.0, SVG Export Plug-In . SVG Version: 6.00 Build 0)  -->
<svg version="1.1" id="Layer_1" xmlns="http://www.w3.org/2000/svg" xmlns:xlink="http://www.w3.org/1999/xlink" x="0px" y="0px"
	 viewBox="0 0 24 24" style="enable-background:new 0 0 24 24;" xml:space="preserve">
<style type="text/css">
	.st0{fill:#A33DFF;}
</style>
<path class="st0" d="M14.5,11H13V6h4c0.6,0,1-0.4,1-1s-0.4-1-1-1h-4V1c0-0.6-0.4-1-1-1s-1,0.4-1,1v3H9.5C7,4,5,6,5,8.5
	C5,11,7,13,9.5,13H11v5H6c-0.6,0-1,0.4-1,1s0.4,1,1,1h5v3c0,0.6,0.4,1,1,1s1-0.4,1-1v-3h1.5c2.5,0,4.5-2,4.5-4.5S17,11,14.5,11z
	 M9.5,11C8.1,11,7,9.9,7,8.5S8.1,6,9.5,6H11v5H9.5z M14.5,18H13v-5h1.5c1.4,0,2.5,1.1,2.5,2.5S15.9,18,14.5,18z"/>
</svg>
