<?xml version="1.0" encoding="utf-8"?>
<!-- Generator: Adobe Illustrator 26.5.0, SVG Export Plug-In . SVG Version: 6.00 Build 0)  -->
<svg version="1.1" id="Layer_1" xmlns="http://www.w3.org/2000/svg" xmlns:xlink="http://www.w3.org/1999/xlink" x="0px" y="0px"
	 viewBox="0 0 24 24" style="enable-background:new 0 0 24 24;" xml:space="preserve">
<style type="text/css">
	.st0{fill:#A33DFF;}
</style>
<g>
	<path id="Vector" class="st0" d="M6.3,19.7c-0.5,0-0.8-0.4-0.8-0.8v-2.3c0-0.5,0.4-0.8,0.8-0.8c0.5,0,0.8,0.4,0.8,0.8v2.3
		C7.1,19.3,6.7,19.7,6.3,19.7L6.3,19.7z"/>
	<path id="Vector-2" class="st0" d="M12,19.7c-0.5,0-0.8-0.4-0.8-0.8v-4.6c0-0.5,0.4-0.8,0.8-0.8c0.5,0,0.8,0.4,0.8,0.8v4.6
		C12.8,19.3,12.5,19.7,12,19.7L12,19.7z"/>
	<path id="Vector-3" class="st0" d="M17.7,19.7c-0.5,0-0.8-0.4-0.8-0.8V12c0-0.5,0.4-0.8,0.8-0.8c0.5,0,0.8,0.4,0.8,0.8v6.9
		C18.6,19.3,18.2,19.7,17.7,19.7L17.7,19.7z"/>
	<path id="Vector-4" class="st0" d="M6.3,13.3c-0.4,0-0.7-0.3-0.8-0.6c-0.1-0.4,0.2-0.9,0.6-1l0,0c4.1-1,7.7-3.3,10.5-6.5l0.5-0.6
		c0.3-0.3,0.8-0.4,1.2-0.1c0.3,0.3,0.4,0.8,0.1,1.1l-0.5,0.6c-3,3.5-6.9,5.9-11.4,7C6.4,13.3,6.4,13.3,6.3,13.3z"/>
	<path id="Vector-5" class="st0" d="M17.7,9.2c-0.5,0-0.8-0.4-0.8-0.8V6h-2.4c-0.5,0-0.8-0.4-0.8-0.8c0-0.5,0.4-0.8,0.8-0.8h3.3
		c0.5,0,0.8,0.4,0.8,0.8v3.3C18.6,8.9,18.2,9.2,17.7,9.2L17.7,9.2z"/>
	<path id="Vector-6" class="st0" d="M15.3,24H8.7C2.6,24,0,21.4,0,15.3V8.7C0,2.6,2.6,0,8.7,0h6.7c6,0,8.6,2.6,8.6,8.7v6.7
		C24,21.4,21.4,24,15.3,24z M8.7,1.7c-5.1,0-7,1.8-7,7v6.7c0,5.1,1.8,7,7,7h6.7c5.1,0,7-1.8,7-7V8.7c0-5.1-1.8-7-7-7
		C15.4,1.7,8.7,1.7,8.7,1.7z"/>
</g>
</svg>
