<?xml version="1.0" encoding="utf-8"?>
<!-- Generator: Adobe Illustrator 26.5.0, SVG Export Plug-In . SVG Version: 6.00 Build 0)  -->
<svg version="1.1" id="Layer_1" xmlns="http://www.w3.org/2000/svg" xmlns:xlink="http://www.w3.org/1999/xlink" x="0px" y="0px"
	 viewBox="0 0 24 24" style="enable-background:new 0 0 24 24;" xml:space="preserve">
<style type="text/css">
	.st0{fill:#A33DFF;}
</style>
<g>
	<path id="Vector" class="st0" d="M13.2,16.7h-2.1c-1.5,0-2.7-1.3-2.7-2.8c0-0.5,0.4-0.8,0.8-0.8c0.5,0,0.8,0.4,0.8,0.8
		c0,0.6,0.4,1.1,1,1.1h2.1c0.5,0,0.8-0.4,0.8-0.9c0-0.6-0.2-0.7-0.5-0.8L10,12.2c-1-0.3-1.7-1.3-1.6-2.4c0-1.4,1.1-2.5,2.5-2.5H13
		c1.5,0,2.7,1.3,2.7,2.8c0,0.5-0.4,0.8-0.8,0.8c-0.5,0-0.8-0.4-0.8-0.8c0-0.6-0.4-1.1-1-1.1H11c-0.5,0-0.8,0.4-0.8,0.9
		c0,0.6,0.2,0.7,0.5,0.8l3.4,1.2c1.1,0.3,1.8,1.3,1.7,2.4C15.7,15.6,14.6,16.7,13.2,16.7z"/>
	<path id="Vector-2" class="st0" d="M12,17.9c-0.5,0-0.8-0.4-0.8-0.8V7c0-0.5,0.4-0.8,0.8-0.8c0.5,0,0.8,0.4,0.8,0.8v10
		C12.8,17.5,12.5,17.9,12,17.9z"/>
	<path id="Vector-3" class="st0" d="M12,24C5.4,24,0,18.6,0,12S5.4,0,12,0c0.5,0,0.8,0.4,0.8,0.8c0,0.5-0.4,0.8-0.8,0.8
		C6.3,1.7,1.7,6.3,1.7,12S6.3,22.3,12,22.3S22.3,17.7,22.3,12c0-0.5,0.4-0.8,0.8-0.8S24,11.5,24,12C24,18.6,18.6,24,12,24z"/>
	<g>
		<path id="Vector-4" class="st0" d="M17.6,1.1c0.5,0,0.8,0.4,0.8,0.8v3.6H22c0.5,0,0.8,0.4,0.8,0.8c0,0.5-0.4,0.8-0.8,0.8h-4.5
			c-0.5,0-0.8-0.4-0.8-0.8V2C16.7,1.5,17.1,1.1,17.6,1.1z"/>
		<path id="Vector-5" class="st0" d="M23.2,0c0.2,0,0.4,0.1,0.6,0.2c0.3,0.3,0.3,0.9,0,1.2L18.2,7c-0.3,0.3-0.9,0.3-1.2,0
			c-0.3-0.3-0.3-0.8,0-1.1l5.6-5.6C22.7,0.1,22.9,0,23.2,0z"/>
	</g>
</g>
</svg>
