<?xml version="1.0" encoding="utf-8"?>
<!-- Generator: Adobe Illustrator 26.5.0, SVG Export Plug-In . SVG Version: 6.00 Build 0)  -->
<svg version="1.1" id="Layer_1" xmlns="http://www.w3.org/2000/svg" xmlns:xlink="http://www.w3.org/1999/xlink" x="0px" y="0px"
	 viewBox="0 0 24 24" style="enable-background:new 0 0 24 24;" xml:space="preserve">
<style type="text/css">
	.st0{fill:#A33DFF;}
</style>
<g>
	<path id="Vector_00000079452164626637297030000013063760527515469194_" class="st0" d="M12,24c-0.7,0-1.4-0.3-1.9-0.8l-1.7-1.7
		c-0.2-0.2-0.4-0.3-0.7-0.3H5.4c-1.4,0-2.6-1.2-2.6-2.6l0,0v-2.4c0-0.2-0.1-0.5-0.3-0.7l-1.7-1.7C0.3,13.3,0,12.7,0,12
		s0.3-1.4,0.8-1.9l1.7-1.7C2.6,8.2,2.7,8,2.7,7.8V5.3c0-1.4,1.2-2.6,2.6-2.6l0,0h2.4c0.2,0,0.5-0.1,0.7-0.3l1.7-1.7c1-1,2.7-1,3.7,0
		l1.7,1.7c0.2,0.2,0.4,0.3,0.7,0.3h2.4c1.4,0,2.6,1.2,2.6,2.6l0,0v2.4c0,0.2,0.1,0.5,0.3,0.7l1.7,1.7c0.5,0.5,0.8,1.2,0.8,1.9
		s-0.3,1.4-0.8,1.9l-1.7,1.7c-0.2,0.2-0.3,0.4-0.3,0.7v2.4c0,1.4-1.2,2.6-2.6,2.6l0,0h-2.4c-0.2,0-0.5,0.1-0.7,0.3l-1.7,1.7
		C13.4,23.7,12.7,24,12,24z M3.7,14.4c0.5,0.5,0.7,1.2,0.8,1.9v2.4c0,0.5,0.4,0.9,0.9,1l0,0h2.4c0.7,0,1.3,0.3,1.9,0.8l1.7,1.7
		c0.4,0.4,1,0.4,1.3,0l1.7-1.7c0.5-0.5,1.2-0.7,1.9-0.8h2.4c0.5,0,0.9-0.4,1-0.9l0,0v-2.4c0-0.7,0.3-1.3,0.8-1.9l1.7-1.7
		c0.4-0.4,0.4-1,0-1.3l0,0l-1.7-1.7c-0.5-0.5-0.7-1.2-0.8-1.9V5.3c0-0.5-0.4-0.9-0.9-1l0,0h-2.4c-0.7,0-1.3-0.3-1.9-0.8l-1.7-1.7
		c-0.4-0.4-1-0.4-1.3,0L9.6,3.6C9.1,4.1,8.5,4.4,7.8,4.4H5.4c-0.5,0-0.9,0.4-1,0.9l0,0v2.4c0,0.7-0.3,1.3-0.8,1.9L2,11.3
		c-0.4,0.4-0.4,1,0,1.3l0,0L3.7,14.4z"/>
	<path id="Vector-2_00000085238584684062415630000014384766523413164956_" class="st0" d="M15.4,16.5c-0.6,0-1.1-0.5-1.1-1.1
		s0.5-1.1,1.1-1.1s1.1,0.5,1.1,1.1l0,0C16.5,16,16,16.5,15.4,16.5L15.4,16.5z"/>
	<path id="Vector-3_00000021823763948800135900000001529117503788778924_" class="st0" d="M8.7,9.7c-0.6,0-1.1-0.5-1.1-1.1
		C7.5,8,8,7.5,8.7,7.5c0.6,0,1.1,0.5,1.1,1.1l0,0C9.8,9.2,9.3,9.7,8.7,9.7L8.7,9.7z"/>
	<path id="Vector-4_00000020378252876811663280000012141000679677332662_" class="st0" d="M8.7,16.2c-0.2,0-0.4-0.1-0.6-0.2
		c-0.3-0.3-0.3-0.9,0-1.2L14.8,8c0.3-0.3,0.9-0.3,1.2,0c0.3,0.3,0.3,0.8,0,1.1l-6.7,6.7C9.1,16.1,8.9,16.2,8.7,16.2z"/>
</g>
</svg>
