<?xml version="1.0" encoding="utf-8"?>
<!-- Generator: Adobe Illustrator 26.5.0, SVG Export Plug-In . SVG Version: 6.00 Build 0)  -->
<svg version="1.1" id="Layer_1" xmlns="http://www.w3.org/2000/svg" xmlns:xlink="http://www.w3.org/1999/xlink" x="0px" y="0px"
	 viewBox="0 0 24 24" style="enable-background:new 0 0 24 24;" xml:space="preserve">
<style type="text/css">
	.st0{fill:#A33DFF;}
</style>
<g>
	<g>
		<path id="Vector_00000101077898777645326740000006650536620073572503_" class="st0" d="M18.5,13.4h-7.6c-0.4,0-0.7-0.3-0.7-0.7
			s0.3-0.7,0.7-0.7h7.6c2.2,0,4.1-1.8,4.1-4.1s-1.8-4.1-4.1-4.1l0,0H8c-0.4,0-0.7-0.3-0.7-0.7S7.6,2.4,8,2.4h10.5
			c3,0,5.5,2.5,5.5,5.5S21.5,13.4,18.5,13.4z"/>
		<path id="Vector-2_00000026843141365536476990000002648341151742854063_" class="st0" d="M10.2,6.3c-0.2,0-0.4-0.1-0.5-0.2
			L7.3,3.6C7,3.4,7,2.9,7.3,2.6l2.4-2.4c0.3-0.3,0.7-0.3,1,0s0.3,0.7,0,1L8.8,3.1L10.7,5c0.3,0.3,0.3,0.7,0,1
			C10.6,6.2,10.4,6.3,10.2,6.3z"/>
	</g>
	<g id="Buy" transform="translate(2 2.5)">
		<path id="Buy-2" class="st0" d="M13.1,20c0-0.8,0.7-1.5,1.5-1.5s1.5,0.7,1.5,1.5s-0.7,1.5-1.5,1.5l0,0
			C13.8,21.5,13.1,20.8,13.1,20z M1.9,20c0-0.8,0.7-1.5,1.5-1.5s1.5,0.7,1.5,1.5s-0.7,1.5-1.5,1.5C2.5,21.5,1.9,20.8,1.9,20z
			 M3.5,16.9c-1.3,0-2.3-0.9-2.5-2.2v-0.2L0.1,3.6l-1.5-0.3C-1.8,3.3-2.1,3-2,2.6V2.5c0-0.3,0.3-0.6,0.7-0.6l0,0h0.1l2.1,0.4
			c0.3,0.1,0.5,0.3,0.6,0.6V3l0.2,2.8h14.1c0.6,0,1.1,0.2,1.5,0.7C17.8,6.8,18,7.4,18,8v0.2l-1,6.5c-0.2,1.2-1.2,2.1-2.4,2.2h-0.2
			H3.5z M2.5,14.4c0,0.5,0.4,0.9,0.9,1h0.1h10.9c0.5,0,0.9-0.3,1-0.8v-0.1l1-6.6c0-0.3-0.2-0.6-0.5-0.7h-0.1h-14L2.5,14.4z"/>
	</g>
	<path id="Vector_00000075849326788374172460000009139173595239489696_" class="st0" d="M18.5,13.4h-7.6c-0.4,0-0.7-0.3-0.7-0.7
		s0.3-0.7,0.7-0.7h7.6c2.2,0,4.1-1.8,4.1-4.1s-1.8-4.1-4.1-4.1l0,0H8c-0.4,0-0.7-0.3-0.7-0.7S7.6,2.4,8,2.4h10.5
		c3,0,5.5,2.5,5.5,5.5S21.5,13.4,18.5,13.4z"/>
</g>
</svg>
