<?xml version="1.0" encoding="utf-8"?>
<!-- Generator: Adobe Illustrator 26.5.0, SVG Export Plug-In . SVG Version: 6.00 Build 0)  -->
<svg version="1.1" id="Layer_1" xmlns="http://www.w3.org/2000/svg" xmlns:xlink="http://www.w3.org/1999/xlink" x="0px" y="0px"
	 viewBox="0 0 24 24" style="enable-background:new 0 0 24 24;" xml:space="preserve">
<style type="text/css">
	.st0{fill:#A33DFF;}
</style>
<path class="st0" d="M17.3,6.7H4.6L9,2.3c0.5-0.5,0.5-1.4,0-1.9s-1.4-0.5-1.9,0L0.4,7.1C0.3,7.2,0.2,7.3,0.1,7.5
	C0,7.8,0,8.2,0.1,8.5c0.1,0.2,0.2,0.3,0.3,0.4l6.7,6.7C7.3,15.9,7.7,16,8,16s0.7-0.1,0.9-0.4c0.5-0.5,0.5-1.4,0-1.9L4.6,9.3h12.8
	c2.2,0,4,1.8,4,4v9.3c0,0.7,0.6,1.3,1.3,1.3c0.7,0,1.3-0.6,1.3-1.3v-9.3C24,9.7,21,6.7,17.3,6.7z"/>
</svg>
