<?xml version="1.0" encoding="utf-8"?>
<!-- Generator: Adobe Illustrator 26.5.0, SVG Export Plug-In . SVG Version: 6.00 Build 0)  -->
<svg version="1.1" id="Layer_1" xmlns="http://www.w3.org/2000/svg" xmlns:xlink="http://www.w3.org/1999/xlink" x="0px" y="0px"
	 viewBox="0 0 24 24" style="enable-background:new 0 0 24 24;" xml:space="preserve">
<style type="text/css">
	.st0{fill:#A33DFF;}
</style>
<g transform="translate(0.000000,62.000000) scale(0.100000,-0.100000)">
	<path class="st0" d="M109.4,614.4c0-2.1,10.1-5.9,22.3-8.8c11.8-2.5,24.4-6.3,27.4-8.4c4.2-2.5-16.4-30.7-76.6-106.1
		C37.5,434.7,0,387.1,0,385.4c-0.4-10.9,24,5.5,114.1,77c55.6,44.2,101.4,80,102.3,79.1c13.5-15.6,14.7-64.4,2.5-90.9
		c-4.2-10.1-9.3-18.1-10.5-18.1c-1.7,0-8,3.4-13.9,8c-18.9,13-42.1,17.7-57.7,11.4c-27.8-11.8-27.4-52.2,0.4-64
		c7.6-3.4,16.4-5.1,19.4-4.2c2.9,1.3,10.5,2.9,16.8,4.2c5.9,1.3,16.8,7.2,24,13.5l12.6,10.5l9.7-14.7c9.3-14.3,20.2-20.2,20.2-10.5
		c0,2.5-5.1,10.9-10.9,18.5l-10.9,14.7l9.3,19.4c12.6,25.7,15.6,69,6.7,94.3c-5.5,16.4-5.9,19.8-0.4,28.2
		c22.3,33.7-18.5,72.4-51.8,49.2c-8.8-5.9-10.9-5.9-26.5,0C137.7,618.2,109.4,620.3,109.4,614.4z M218.1,602.6
		c9.7-6.7,12.2-24,5.5-34.9c-3.4-5.1-5.1-5.1-10.5,0.8c-3.8,3.4-5.5,9.7-4.2,13c3.4,8.8-5.9,8.8-16-0.4s-10.1-19.4,0.4-16
		c9.7,2.9,15.6-9.7,8-17.3C188.6,535.7,53,428.8,51.4,430c-1.7,1.7,112.4,144.4,132.2,165.4C198.3,611,204.2,612.3,218.1,602.6z
		 M178.9,435.5c9.3-5.1,16.8-12.2,16.8-15.2c0-8.8-19.4-21.5-36.6-24c-26.9-4.6-42.9,21.9-24.4,40.4
		C145.6,447.7,157.9,447.3,178.9,435.5z"/>
</g>
</svg>
