<?xml version="1.0" encoding="utf-8"?>
<!-- Generator: Adobe Illustrator 26.5.0, SVG Export Plug-In . SVG Version: 6.00 Build 0)  -->
<svg version="1.1" id="Layer_1" xmlns="http://www.w3.org/2000/svg" xmlns:xlink="http://www.w3.org/1999/xlink" x="0px" y="0px"
	 viewBox="0 0 24 24" style="enable-background:new 0 0 24 24;" xml:space="preserve">
<style type="text/css">
	.st0{fill:#A33DFF;}
</style>
<path class="st0" d="M20.6,1.3H3.4c-1.8,0-3.2,1.4-3.2,3.2v10.7c0,1.8,1.4,3.2,3.2,3.2h7.5v2.1H7.7c-0.6,0-1.1,0.5-1.1,1.1
	c0,0.6,0.5,1.1,1.1,1.1h8.6c0.6,0,1.1-0.5,1.1-1.1c0-0.6-0.5-1.1-1.1-1.1h-3.2v-2.1h7.5c1.8,0,3.2-1.4,3.2-3.2V4.5
	C23.8,2.7,22.3,1.3,20.6,1.3z M21.6,15.2c0,0.6-0.5,1.1-1.1,1.1H3.4c-0.6,0-1.1-0.5-1.1-1.1V4.5c0-0.6,0.5-1.1,1.1-1.1h17.1
	c0.6,0,1.1,0.5,1.1,1.1V15.2z"/>
</svg>
