<?xml version="1.0" encoding="utf-8"?>
<!-- Generator: Adobe Illustrator 26.5.0, SVG Export Plug-In . SVG Version: 6.00 Build 0)  -->
<svg version="1.1" id="Layer_1" xmlns="http://www.w3.org/2000/svg" xmlns:xlink="http://www.w3.org/1999/xlink" x="0px" y="0px"
	 viewBox="0 0 24 24" style="enable-background:new 0 0 24 24;" xml:space="preserve">
<style type="text/css">
	.st0{fill:#A33DFF;}
</style>
<g>
	<path id="Vector" class="st0" d="M13.1,15.1H12c-0.5,0-0.8-0.4-0.8-0.8s0.4-0.8,0.8-0.8h1.1c0.8,0,1.4-0.6,1.4-1.4V1.7H5.3
		C4,1.7,2.8,2.4,2.1,3.5C1.9,3.9,1.4,4.1,1,3.9C0.6,3.7,0.4,3.2,0.6,2.8l0,0C1.6,1,3.4,0,5.3,0h10c0.5,0,0.8,0.4,0.8,0.8V12
		C16.2,13.7,14.8,15.1,13.1,15.1L13.1,15.1z"/>
	<path id="Vector-2" class="st0" d="M19.8,21.8h-1.1c-0.5,0-0.8-0.4-0.8-0.8c0-0.8-0.6-1.4-1.4-1.4c-0.8,0-1.4,0.6-1.4,1.4
		c0,0.5-0.4,0.8-0.8,0.8H9.8C9.3,21.8,9,21.4,9,21c0-0.8-0.6-1.4-1.4-1.4S6.2,20.2,6.2,21c0,0.5-0.4,0.8-0.8,0.8H4.2
		c-2.3,0-4.2-1.9-4.2-4.2c0-0.5,0.4-0.8,0.8-0.8c0.5,0,0.8,0.4,0.8,0.8c0,1.4,1.1,2.5,2.5,2.5h0.4C5,18.5,6.7,17.5,8.4,18
		c1,0.3,1.8,1.1,2.1,2.1h3c0.5-1.6,2.2-2.6,3.8-2.1c1,0.3,1.8,1.1,2.1,2.1h0.4c1.4,0,2.5-1.1,2.5-2.5v-2.5h-2.5c-1.1,0-1.9-0.9-2-2
		V9.8c0-1.1,0.9-2,2-2l-1.2-2.1C18.4,5.3,17.9,5,17.4,5h-1.2v7c0,1.7-1.4,3.1-3.1,3.1l0,0H12c-0.5,0-0.8-0.4-0.8-0.8
		s0.4-0.8,0.8-0.8h1.1c0.8,0,1.4-0.6,1.4-1.4V4.2c0-0.5,0.4-0.8,0.8-0.8h2.1c1.1,0,2.1,0.6,2.7,1.6L22,8.2c0.1,0.3,0.1,0.6,0,0.8
		c-0.1,0.3-0.4,0.4-0.7,0.4h-1.4c-0.2,0-0.3,0.1-0.3,0.3l0,0V13c0,0.2,0.1,0.3,0.3,0.3l0,0h3.3c0.5,0,0.8,0.4,0.8,0.8v3.3
		C24,19.9,22.1,21.8,19.8,21.8z"/>
	<path id="Vector-3" class="st0" d="M7.5,24c-1.7,0-3.1-1.4-3.1-3.1s1.4-3.1,3.1-3.1s3.1,1.4,3.1,3.1S9.2,24,7.5,24L7.5,24z
		 M7.5,19.5c-0.8,0-1.4,0.6-1.4,1.4s0.6,1.4,1.4,1.4s1.4-0.6,1.4-1.4S8.3,19.5,7.5,19.5z"/>
	<path id="Vector-4" class="st0" d="M16.5,24c-1.7,0-3.1-1.4-3.1-3.1s1.4-3.1,3.1-3.1s3.1,1.4,3.1,3.1C19.5,22.6,18.2,24,16.5,24
		L16.5,24z M16.5,19.5c-0.8,0-1.4,0.6-1.4,1.4s0.6,1.4,1.4,1.4s1.4-0.6,1.4-1.4S17.2,19.5,16.5,19.5z"/>
	<path id="Vector-5" class="st0" d="M23.2,15.1h-3.3c-1.1,0-1.9-0.9-2-2V9.8c0-1.1,0.9-1.9,2-2h1.4c0.3,0,0.6,0.2,0.7,0.4l1.9,3.3
		C24,11.7,24,11.9,24,12v2.2C24,14.7,23.6,15.1,23.2,15.1z M19.8,9.5c-0.2,0-0.3,0.1-0.3,0.3l0,0v3.3c0,0.2,0.1,0.3,0.3,0.3l0,0h2.5
		v-1.2l-1.6-2.7C20.7,9.5,19.8,9.5,19.8,9.5z"/>
	<path id="Vector-6" class="st0" d="M7.5,8.4H0.8C0.4,8.4,0,8,0,7.5s0.4-0.8,0.8-0.8h6.7c0.5,0,0.8,0.4,0.8,0.8C8.4,8,8,8.4,7.5,8.4
		z"/>
	<path id="Vector-7" class="st0" d="M5.3,11.7H0.8c-0.5,0-0.8-0.4-0.8-0.8C0,10.4,0.4,10,0.8,10h4.5c0.5,0,0.8,0.4,0.8,0.8
		C6.1,11.3,5.8,11.7,5.3,11.7z"/>
	<path id="Vector-8" class="st0" d="M3.1,15.1H0.8c-0.5,0-0.8-0.4-0.8-0.8c0-0.5,0.4-0.8,0.8-0.8H3c0.5,0,0.8,0.4,0.8,0.8
		C3.9,14.7,3.5,15.1,3.1,15.1z"/>
</g>
</svg>
