<?xml version="1.0" encoding="utf-8"?>
<!-- Generator: Adobe Illustrator 26.5.0, SVG Export Plug-In . SVG Version: 6.00 Build 0)  -->
<svg version="1.1" id="Layer_1" xmlns="http://www.w3.org/2000/svg" xmlns:xlink="http://www.w3.org/1999/xlink" x="0px" y="0px"
	 viewBox="0 0 24 24" style="enable-background:new 0 0 24 24;" xml:space="preserve">
<style type="text/css">
	.st0{fill:#A33DFF;}
</style>
<g>
	<path class="st0" d="M16.7,14.3H7.3c-3.2,0-5.9,2.6-5.9,5.9v2.3c0,0.6,0.5,1.2,1.2,1.2s1.2-0.5,1.2-1.2v-2.3c0-1.9,1.6-3.5,3.5-3.5
		h9.4c1.9,0,3.5,1.6,3.5,3.5v2.3c0,0.6,0.5,1.2,1.2,1.2s1.2-0.5,1.2-1.2v-2.3C22.5,17,19.9,14.3,16.7,14.3z"/>
	<path class="st0" d="M12,12c3.2,0,5.9-2.6,5.9-5.9S15.2,0.3,12,0.3S6.1,2.9,6.1,6.1S8.8,12,12,12z M12,2.6c1.9,0,3.5,1.6,3.5,3.5
		S13.9,9.7,12,9.7S8.5,8.1,8.5,6.1S10.1,2.6,12,2.6z"/>
</g>
</svg>
