<?xml version="1.0" encoding="utf-8"?>
<!-- Generator: Adobe Illustrator 26.0.3, SVG Export Plug-In . SVG Version: 6.00 Build 0)  -->
<svg version="1.1" id="Layer_1" xmlns="http://www.w3.org/2000/svg" xmlns:xlink="http://www.w3.org/1999/xlink" x="0px" y="0px"
	 viewBox="0 0 24 24" style="enable-background:new 0 0 24 24;" xml:space="preserve">
<style type="text/css">
	.st0{fill:#FFFFFF;}
</style>
<g>
	<path class="st0" d="M21,19h-6v-2c0-0.6-0.4-1-1-1s-1,0.4-1,1v6c0,0.6,0.4,1,1,1s1-0.4,1-1v-2h6c0.6,0,1-0.4,1-1S21.6,19,21,19z"/>
	<path class="st0" d="M10,19H3c-0.6,0-1,0.4-1,1s0.4,1,1,1h7c0.6,0,1-0.4,1-1S10.6,19,10,19z"/>
	<path class="st0" d="M21,11h-9c-0.6,0-1,0.4-1,1s0.4,1,1,1h9c0.6,0,1-0.4,1-1S21.6,11,21,11z"/>
	<path class="st0" d="M3,13h4v2c0,0.6,0.4,1,1,1s1-0.4,1-1V9c0-0.6-0.4-1-1-1S7,8.4,7,9v2H3c-0.6,0-1,0.4-1,1S2.4,13,3,13z"/>
	<path class="st0" d="M3,5h9c0.6,0,1-0.4,1-1s-0.4-1-1-1H3C2.4,3,2,3.4,2,4S2.4,5,3,5z"/>
	<path class="st0" d="M16,8c0.6,0,1-0.4,1-1V5h4c0.6,0,1-0.4,1-1s-0.4-1-1-1h-4V1c0-0.6-0.4-1-1-1s-1,0.4-1,1v6C15,7.6,15.4,8,16,8z
		"/>
</g>
</svg>
