<?xml version="1.0" encoding="utf-8"?>
<!-- Generator: Adobe Illustrator 26.0.3, SVG Export Plug-In . SVG Version: 6.00 Build 0)  -->
<svg version="1.1" id="Layer_1" xmlns="http://www.w3.org/2000/svg" xmlns:xlink="http://www.w3.org/1999/xlink" x="0px" y="0px"
	 viewBox="0 0 24 24" style="enable-background:new 0 0 24 24;" xml:space="preserve">
<style type="text/css">
	.st0{fill:#FFFFFF;}
</style>
<g>
	<path id="Vector" class="st0" d="M12,24c-0.9,0-1.8-0.5-2.3-1.2l-1.1-1.5C8.4,21,8,20.8,7.7,20.8c-0.4,0-0.7,0.1-0.9,0.4
		C6.1,22,5.1,22.6,4,22.7c-0.6,0-1.2-0.3-1.5-0.8c0-0.1-0.1-0.1-0.1-0.2c-0.5-1.3-0.7-2.7-0.6-4.1V6.5C1.6,5.1,1.8,3.7,2.3,2.3
		c0-0.1,0.1-0.1,0.1-0.2c0.4-0.5,0.9-0.8,1.5-0.8C5,1.4,6.1,2,6.7,2.8C7,3.1,7.3,3.3,7.7,3.3C8,3.2,8.4,3,8.6,2.7l1.1-1.5
		C10.2,0.5,11.1,0,12,0c0.9,0,1.8,0.5,2.3,1.2l1.1,1.5C15.6,3,16,3.2,16.3,3.3c0.4,0,0.7-0.2,0.9-0.4C17.9,2,18.9,1.5,20,1.4
		c0.6,0,1.2,0.3,1.6,0.8c0,0.1,0.1,0.1,0.1,0.2c0.5,1.3,0.7,2.7,0.6,4.1v11.1c0.1,1.4-0.1,2.8-0.6,4.1c0,0.1-0.1,0.2-0.2,0.3
		c-0.4,0.5-1,0.7-1.6,0.7c-1.1-0.1-2-0.6-2.7-1.5c-0.4-0.5-1.1-0.6-1.6-0.2c-0.1,0.1-0.2,0.2-0.2,0.3l-1.1,1.5
		C13.8,23.5,12.9,24,12,24z M7.6,19.1h0.1c0.8,0.1,1.6,0.5,2.1,1.2l1.1,1.5c0.3,0.5,1,0.7,1.5,0.4c0.2-0.1,0.3-0.2,0.4-0.4l1.1-1.5
		c0.9-1.3,2.6-1.6,3.9-0.7c0.2,0.1,0.3,0.3,0.5,0.4c0.8,0.9,1.3,0.9,1.5,0.9c0.1,0,0.2,0,0.2-0.1c0.4-1.1,0.5-2.2,0.4-3.4V6.5
		c0.1-1.1-0.1-2.3-0.4-3.3C20.1,3.1,20,3,19.9,3c-0.1,0-0.6,0.1-1.5,0.9c-0.6,0.6-1.4,1-2.3,0.9c-0.9-0.1-1.6-0.5-2.2-1.2l-1.1-1.5
		c-0.3-0.5-1-0.7-1.5-0.4c-0.2,0.1-0.3,0.2-0.4,0.4L9.9,3.8C9.4,4.5,8.6,4.9,7.8,4.9C6.9,5,6.1,4.6,5.5,4C4.8,3.3,4.3,3,4,3
		c-0.1,0-0.2,0-0.2,0.1C3.4,4.2,3.3,5.3,3.3,6.5v11.1c-0.1,1.1,0.1,2.3,0.4,3.3C3.8,20.9,3.9,21,4,21c0.3,0,0.8-0.2,1.5-1
		C6,19.4,6.8,19.1,7.6,19.1z"/>
	<path id="Vector-2" class="st0" d="M17,10.9H8.1c-0.5,0-0.8-0.4-0.8-0.8c0-0.5,0.4-0.8,0.8-0.8H17c0.5,0,0.8,0.4,0.8,0.8
		C17.9,10.5,17.5,10.9,17,10.9z"/>
	<path id="Vector-3" class="st0" d="M14.8,14.8H8.1c-0.5,0-0.8-0.4-0.8-0.8c0-0.5,0.4-0.8,0.8-0.8h6.7c0.5,0,0.8,0.4,0.8,0.8
		C15.6,14.4,15.3,14.8,14.8,14.8z"/>
</g>
</svg>
