<?xml version="1.0" encoding="utf-8"?>
<!-- Generator: Adobe Illustrator 26.5.0, SVG Export Plug-In . SVG Version: 6.00 Build 0)  -->
<svg version="1.1" id="Layer_1" xmlns="http://www.w3.org/2000/svg" xmlns:xlink="http://www.w3.org/1999/xlink" x="0px" y="0px"
	 viewBox="0 0 24 24" style="enable-background:new 0 0 24 24;" xml:space="preserve">
<style type="text/css">
	.st0{fill:#FFFFFF;}
</style>
<path class="st0" d="M1.9,24c-0.4,0-0.9-0.2-1.2-0.5c-0.7-0.7-0.7-1.8,0-2.4L21.3,0.5c0.7-0.7,1.8-0.7,2.4,0c0.7,0.7,0.7,1.8,0,2.4
	L3.1,23.5C2.8,23.8,2.3,24,1.9,24z"/>
<path class="st0" d="M22.5,24c-0.4,0-0.9-0.2-1.2-0.5L0.7,2.9C0,2.3,0,1.2,0.7,0.5s1.8-0.7,2.4,0l20.6,20.6c0.7,0.7,0.7,1.8,0,2.4
	C23.4,23.8,22.9,24,22.5,24z"/>
</svg>
