<svg xmlns="http://www.w3.org/2000/svg" width="20" height="22" viewBox="0 0 20 22">
  <g id="Group_12" data-name="Group 12" transform="translate(-1907.446 366.255)">
    <path id="Path_8" data-name="Path 8" d="M1926.446-362.255h-4v-1a3,3,0,0,0-3-3h-4a3,3,0,0,0-3,3v1h-4a1,1,0,0,0-1,1,1,1,0,0,0,1,1h1v13a3,3,0,0,0,3,3h10a3,3,0,0,0,3-3v-13h1a1,1,0,0,0,1-1A1,1,0,0,0,1926.446-362.255Zm-12-1a1,1,0,0,1,1-1h4a1,1,0,0,1,1,1v1h-6Zm9,16a1,1,0,0,1-1,1h-10a1,1,0,0,1-1-1v-13h12Z" fill="#fff"/>
    <path id="Path_9" data-name="Path 9" d="M1915.446-357.255a1,1,0,0,0-1,1v6a1,1,0,0,0,1,1,1,1,0,0,0,1-1v-6A1,1,0,0,0,1915.446-357.255Z" fill="#fff"/>
    <path id="Path_10" data-name="Path 10" d="M1919.446-357.255a1,1,0,0,0-1,1v6a1,1,0,0,0,1,1,1,1,0,0,0,1-1v-6A1,1,0,0,0,1919.446-357.255Z" fill="#fff"/>
  </g>
</svg>
