<svg xmlns="http://www.w3.org/2000/svg" width="20" height="20" viewBox="0 0 20 20">
  <g id="download" transform="translate(-2 -2)">
    <path id="Path_4" data-name="Path 4" d="M19,22H5a3,3,0,0,1-3-3V15a1,1,0,0,1,2,0v4a1,1,0,0,0,1,1H19a1,1,0,0,0,1-1V15a1,1,0,0,1,2,0v4A3,3,0,0,1,19,22Z" fill="#fff"/>
    <path id="Path_5" data-name="Path 5" d="M12,16a1,1,0,0,1-.707-.293l-5-5A1,1,0,0,1,7.707,9.293L12,13.586l4.293-4.293a1,1,0,0,1,1.414,1.414l-5,5A1,1,0,0,1,12,16Z" fill="#fff"/>
    <path id="Line_6" data-name="Line 6" d="M0,13a1,1,0,0,1-1-1V0A1,1,0,0,1,0-1,1,1,0,0,1,1,0V12A1,1,0,0,1,0,13Z" transform="translate(12 3)" fill="#fff"/>
  </g>
</svg>
