<?xml version="1.0" encoding="utf-8"?>
<!-- Generator: Adobe Illustrator 26.0.3, SVG Export Plug-In . SVG Version: 6.00 Build 0)  -->
<svg version="1.1" id="Layer_1" xmlns="http://www.w3.org/2000/svg" xmlns:xlink="http://www.w3.org/1999/xlink" x="0px" y="0px"
	 viewBox="0 0 20 20" style="enable-background:new 0 0 20 20;" xml:space="preserve">
<style type="text/css">
	.st0{fill:#FFFFFF;}
</style>
<g id="download" transform="translate(-2 -2)">
	<path class="st0" d="M21,14c-0.6,0-1,0.4-1,1v4c0,0.6-0.4,1-1,1H9H5c-0.6,0-1-0.4-1-1v-4V5c0-0.6,0.4-1,1-1h4c0.6,0,1-0.4,1-1
		S9.6,2,9,2H5C3.3,2,2,3.3,2,5v10v4c0,1.7,1.3,3,3,3h4h10c1.7,0,3-1.3,3-3v-4C22,14.4,21.6,14,21,14z"/>
	<g>
		<path id="Path_5" class="st0" d="M21.7,2.3C21.9,2.5,22,2.7,22,3l0,7.1c0,0.6-0.5,1-1,1c-0.5,0-1-0.4-1-1L20,4l-6.1,0
			c-0.6,0-1-0.5-1-1c0-0.5,0.4-1,1-1L21,2C21.3,2,21.5,2.1,21.7,2.3z"/>
		<path id="Line_6" class="st0" d="M21.7,2.3c0.4,0.4,0.4,1,0,1.4l-8.5,8.5c-0.4,0.4-1,0.4-1.4,0c-0.4-0.4-0.4-1,0-1.4l8.5-8.5
			C20.7,1.9,21.3,1.9,21.7,2.3z"/>
	</g>
</g>
</svg>
