<svg xmlns="http://www.w3.org/2000/svg" width="24" height="18" viewBox="0 0 24 18">
  <g id="eye" transform="translate(0 -3)">
    <path id="Path_3" data-name="Path 3" d="M12,3a10.585,10.585,0,0,1,5.155,1.374,15.171,15.171,0,0,1,3.7,2.942,19.868,19.868,0,0,1,3.04,4.237,1,1,0,0,1,0,.894,19.868,19.868,0,0,1-3.04,4.237,15.171,15.171,0,0,1-3.7,2.942A10.585,10.585,0,0,1,12,21a10.585,10.585,0,0,1-5.155-1.374,15.171,15.171,0,0,1-3.7-2.942,19.868,19.868,0,0,1-3.04-4.237,1,1,0,0,1,0-.894,19.868,19.868,0,0,1,3.04-4.237,15.171,15.171,0,0,1,3.7-2.942A10.585,10.585,0,0,1,12,3Zm9.859,9a18.761,18.761,0,0,0-2.5-3.354C17.078,6.227,14.6,5,12,5c-5.395,0-8.925,5.391-9.859,7a18.761,18.761,0,0,0,2.5,3.354C6.922,17.773,9.4,19,12,19,17.395,19,20.925,13.609,21.859,12Z" fill="#fff"/>
    <path id="Ellipse_1" data-name="Ellipse 1" d="M3-1A4,4,0,1,1-1,3,4,4,0,0,1,3-1ZM3,5A2,2,0,1,0,1,3,2,2,0,0,0,3,5Z" transform="translate(9 9)" fill="#fff"/>
  </g>
</svg>
