<?xml version="1.0" encoding="utf-8"?>
<!-- Generator: Adobe Illustrator 26.5.0, SVG Export Plug-In . SVG Version: 6.00 Build 0)  -->
<svg version="1.1" id="Layer_1" xmlns="http://www.w3.org/2000/svg" xmlns:xlink="http://www.w3.org/1999/xlink" x="0px" y="0px"
	 viewBox="0 0 24 24" style="enable-background:new 0 0 24 24;" xml:space="preserve">
<style type="text/css">
	.st0{fill:#FFFFFF;}
</style>
<path class="st0" d="M12,24C5.4,24,0,18.6,0,12S5.4,0,12,0s12,5.4,12,12S18.6,24,12,24z M12,2.2c-5.4,0-9.8,4.4-9.8,9.8
	c0,5.4,4.4,9.8,9.8,9.8c5.4,0,9.8-4.4,9.8-9.8C21.8,6.6,17.4,2.2,12,2.2z"/>
<path class="st0" d="M12,17.5c-0.6,0-1.1-0.5-1.1-1.1V12c0-0.6,0.5-1.1,1.1-1.1s1.1,0.5,1.1,1.1v4.4C13.1,17,12.6,17.5,12,17.5z"/>
<path class="st0" d="M12,8.7c-0.6,0-1.1-0.5-1.1-1.1s0.5-1.1,1.1-1.1h0c0.6,0,1.1,0.5,1.1,1.1S12.6,8.7,12,8.7z"/>
</svg>
