<?xml version="1.0" encoding="utf-8"?>
<!-- Generator: Adobe Illustrator 26.0.3, SVG Export Plug-In . SVG Version: 6.00 Build 0)  -->
<svg version="1.1" id="Layer_1" xmlns="http://www.w3.org/2000/svg" xmlns:xlink="http://www.w3.org/1999/xlink" x="0px" y="0px"
	 viewBox="0 0 24 24" style="enable-background:new 0 0 24 24;" xml:space="preserve">
<style type="text/css">
	.st0{fill:#FFFFFF;}
</style>
<g>
	<path id="Vector" class="st0" d="M22,8.5V4c0-1.4-0.6-2-2.2-2h-4c-1.6,0-2.2,0.6-2.2,2v4.5c0,1.4,0.6,2,2.2,2h4
		C21.4,10.5,22,9.9,22,8.5z"/>
	<path id="Vector-2" class="st0" d="M22,19.8v-4c0-1.6-0.6-2.2-2.2-2.2h-4c-1.6,0-2.2,0.6-2.2,2.2v4c0,1.6,0.6,2.2,2.2,2.2h4
		C21.4,22,22,21.4,22,19.8z"/>
	<path id="Vector-3" class="st0" d="M10.5,8.5V4c0-1.4-0.6-2-2.2-2h-4C2.6,2,2,2.6,2,4v4.5c0,1.4,0.6,2,2.2,2h4
		C9.9,10.5,10.5,9.9,10.5,8.5z"/>
	<path id="Vector-4" class="st0" d="M10.5,19.8v-4c0-1.6-0.6-2.2-2.2-2.2h-4c-1.6,0-2.2,0.6-2.2,2.2v4C2,21.4,2.6,22,4.2,22h4
		C9.9,22,10.5,21.4,10.5,19.8z"/>
</g>
</svg>
