<?xml version="1.0" encoding="utf-8"?>
<!-- Generator: Adobe Illustrator 26.0.3, SVG Export Plug-In . SVG Version: 6.00 Build 0)  -->
<svg version="1.1" id="Layer_1" xmlns="http://www.w3.org/2000/svg" xmlns:xlink="http://www.w3.org/1999/xlink" x="0px" y="0px"
	 viewBox="0 0 24 24" style="enable-background:new 0 0 24 24;" xml:space="preserve">
<style type="text/css">
	.st0{fill:#FFFFFF;}
</style>
<path class="st0" d="M12,24C5.4,24,0,18.6,0,12S5.4,0,12,0s12,5.4,12,12S18.6,24,12,24z M12,21.6c5.3,0,9.6-4.3,9.6-9.6
	S17.3,2.4,12,2.4S2.4,6.7,2.4,12c0,0,0,0,0,0C2.4,17.3,6.7,21.6,12,21.6z M7.8,14.4h6.6c0.3,0,0.6-0.3,0.6-0.6
	c0-0.3-0.3-0.6-0.6-0.6H9.6c-1.7,0-3-1.3-3-3s1.3-3,3-3h1.2V4.8h2.4v2.4h3v2.4H9.6C9.3,9.6,9,9.9,9,10.2c0,0.3,0.3,0.6,0.6,0.6h4.8
	c1.7,0,3,1.3,3,3c0,1.7-1.3,3-3,3h-1.2v2.4h-2.4v-2.4h-3V14.4z"/>
</svg>
