<svg xmlns="http://www.w3.org/2000/svg" width="22" height="22" viewBox="0 0 22 22">
  <g id="printer" transform="translate(-1 -1)">
    <path id="Path_6" data-name="Path 6" d="M18,10a1,1,0,0,1-1-1V3H7V9A1,1,0,0,1,5,9V2A1,1,0,0,1,6,1H18a1,1,0,0,1,1,1V9A1,1,0,0,1,18,10Z" fill="#fff"/>
    <path id="Path_7" data-name="Path 7" d="M20,19H18a1,1,0,0,1,0-2h2a1,1,0,0,0,1-1V11a1,1,0,0,0-1-1H4a1,1,0,0,0-1,1v5a1,1,0,0,0,1,1H6a1,1,0,0,1,0,2H4a3,3,0,0,1-3-3V11A3,3,0,0,1,4,8H20a3,3,0,0,1,3,3v5A3,3,0,0,1,20,19Z" fill="#fff"/>
    <path id="Rectangle_2" data-name="Rectangle 2" d="M0-1H12a1,1,0,0,1,1,1V8a1,1,0,0,1-1,1H0A1,1,0,0,1-1,8V0A1,1,0,0,1,0-1ZM11,1H1V7H11Z" transform="translate(6 14)" fill="#fff"/>
  </g>
</svg>
