<?xml version="1.0" encoding="utf-8"?>
<!-- Generator: Adobe Illustrator 26.0.3, SVG Export Plug-In . SVG Version: 6.00 Build 0)  -->
<svg version="1.1" id="Layer_1" xmlns="http://www.w3.org/2000/svg" xmlns:xlink="http://www.w3.org/1999/xlink" x="0px" y="0px"
	 viewBox="0 0 24 24" style="enable-background:new 0 0 24 24;" xml:space="preserve">
<style type="text/css">
	.st0{fill:#9EA0A7;}
</style>
<g>
	<path class="st0" d="M10.8,18.3c-0.1-0.1-0.2-0.3-0.2-0.5v-1.4c0-1.2,0.3-2.2,0.9-3.1c0.6-0.9,1.4-1.8,2.5-2.9
		c0.9-0.9,1.5-1.6,1.9-2.2c0.4-0.6,0.6-1.2,0.6-1.9c0-1-0.4-1.9-1.3-2.5c-0.9-0.6-1.9-0.9-3-0.9c-2.7,0-4.3,1.4-4.7,4.1
		C7.3,7.4,7,7.6,6.6,7.6H4.9c-0.2,0-0.4-0.1-0.5-0.2C4.3,7.3,4.2,7.1,4.2,6.9c0-1.2,0.4-2.4,1.1-3.4c0.7-1,1.6-1.9,2.8-2.5
		C9.3,0.3,10.7,0,12.3,0c1.7,0,3.1,0.3,4.2,0.9s2,1.3,2.5,2.2C19.5,4,19.8,5,19.8,6c0,1.1-0.3,2.1-0.8,3c-0.5,0.8-1.3,1.8-2.3,2.9
		c-0.9,0.9-1.5,1.7-1.9,2.3c-0.4,0.6-0.7,1.3-0.7,2.1c0,0.6-0.1,1.1-0.1,1.4c-0.1,0.5-0.4,0.8-0.8,0.8h-1.8
		C11.1,18.5,10.9,18.4,10.8,18.3z M10.5,23.8c-0.1-0.1-0.2-0.3-0.2-0.6v-2.1c0-0.2,0.1-0.4,0.2-0.6c0.1-0.1,0.3-0.2,0.6-0.2h2.2
		c0.2,0,0.4,0.1,0.6,0.2c0.2,0.1,0.2,0.3,0.2,0.6v2.1c0,0.2-0.1,0.4-0.2,0.6c-0.2,0.1-0.3,0.2-0.6,0.2H11
		C10.8,24,10.6,23.9,10.5,23.8z"/>
</g>
</svg>
