<svg id="Layer_1" data-name="Layer 1" xmlns="http://www.w3.org/2000/svg" viewBox="0 0 24.04 24"><defs><style>.cls-1{fill:#fff;}.cls-2{fill:none;}</style></defs><g id="Group_81" data-name="Group 81"><path id="Path_659" data-name="Path 659" class="cls-1" d="M22.78,6.49a3.78,3.78,0,0,0,1.16-2c0-.06,0-.14.08-.18v-1s0,0-.05-.07a3.55,3.55,0,0,0-2.57-3,3.6,3.6,0,0,0-3.84,1l-.39.41h0l-.23-.12A11.72,11.72,0,0,0,11.32,0h-.06a.7.7,0,0,0-.72.69V.76a.72.72,0,0,0,.76.65,10.76,10.76,0,0,1,2.12.24,9.89,9.89,0,0,1,2.81,1.07c-.33.39-.65.76-1,1.14C11.34,8.63,7.52,13.48,3.69,18.33,2.45,19.91,1.22,21.49,0,23.06v.43A1.12,1.12,0,0,0,.5,24H.83a2,2,0,0,0,.48-.3C6.86,19.37,12.38,15,17.85,10.61,19,9.67,20.2,8.7,21.37,7.74A6.49,6.49,0,0,1,22,8.94a10,10,0,0,1,.53,4.82,11.46,11.46,0,0,1-.65,2.64c-.08.21-1.22,2.41-1.28,2.41a11.23,11.23,0,0,0-3-2,5.38,5.38,0,0,0-3.77-.39,3.69,3.69,0,0,0-.13,7,5.15,5.15,0,0,0,3.46-.12,8.48,8.48,0,0,0,3.54-2.32l2,2.62a1.52,1.52,0,0,0,.33.34.69.69,0,0,0,1-.56,1.24,1.24,0,0,0-.27-.65,23.61,23.61,0,0,0-2.14-2.83,12.71,12.71,0,0,0,1.3-2.3A13.48,13.48,0,0,0,24,12.88h0v-.22h0v0c0-.17,0-.33,0-.5a10.56,10.56,0,0,0-1.49-5.34A1.33,1.33,0,0,1,22.78,6.49ZM15.06,22.21a2.3,2.3,0,0,1-.51-4.56,3.74,3.74,0,0,1,2,.24,9.15,9.15,0,0,1,3.12,2.05h0A6.52,6.52,0,0,1,15.06,22.21ZM20.61,6.54a8.6,8.6,0,0,0-1-1.13,3.47,3.47,0,0,1-.32.34.71.71,0,0,1-1,0,.69.69,0,0,1,0-1c.51-.53,1-1.06,1.58-1.57a.67.67,0,0,1,.95,0,.7.7,0,0,1,0,.95c-.07.09-.16.17-.24.26A10.66,10.66,0,0,1,21.66,5.6Z" transform="translate(0.02 0)"/><path id="Path_660" data-name="Path 660" class="cls-1" d="M24,12.94c-.11-.09-.05-.2-.05-.29a2.29,2.29,0,0,1,.05-.74Z" transform="translate(0.02 0)"/></g><line class="cls-2" x1="21.68" y1="5.6" x2="20.62" y2="6.54"/></svg>