<?xml version="1.0" encoding="utf-8"?>
<!-- Generator: Adobe Illustrator 26.0.3, SVG Export Plug-In . SVG Version: 6.00 Build 0)  -->
<svg version="1.1" id="Layer_1" xmlns="http://www.w3.org/2000/svg" xmlns:xlink="http://www.w3.org/1999/xlink" x="0px" y="0px"
	 viewBox="0 0 24 24" style="enable-background:new 0 0 24 24;" xml:space="preserve">
<style type="text/css">
	.st0{fill:#FFFFFF;}
</style>
<g id="_01_align_center">
	<path class="st0" d="M21,7h-8V3h-2v4H3c-1.7,0-3,1.3-3,3v11h24V10C24,8.3,22.7,7,21,7z M9,11h3v2H9V11z M6,17H4v-2h2V17z M7,13H4
		v-2h3V13z M16,17H8v-2h8V17z M20,17h-2v-2h2V17z M20,13h-6v-2h6V13z"/>
</g>
</svg>
