<?xml version="1.0" encoding="utf-8"?>
<!-- Generator: Adobe Illustrator 26.0.3, SVG Export Plug-In . SVG Version: 6.00 Build 0)  -->
<svg version="1.1" id="Layer_1" xmlns="http://www.w3.org/2000/svg" xmlns:xlink="http://www.w3.org/1999/xlink" x="0px" y="0px"
	 viewBox="0 0 24 24" style="enable-background:new 0 0 24 24;" xml:space="preserve">
<style type="text/css">
	.st0{fill:#FFFFFF;}
</style>
<g>
	<path class="st0" d="M16,7c-0.5,0-1,0.5-1,1v8c0,0.3,0.2,0.6,0.4,0.8c0,0.1-0.1,0.1-0.1,0.2H16c0.5,0,1-0.5,1-1V7H16z"/>
	<path class="st0" d="M17,3v4h-1c-0.5,0-1,0.5-1,1v8c0,0.3,0.2,0.6,0.4,0.8c0,0.1-0.1,0.1-0.1,0.2H1c-0.5,0-1-0.5-1-1V3
		c0-0.5,0.5-1,1-1h15C16.5,2,17,2.5,17,3z"/>
	<path class="st0" d="M23.7,10.3l-3-3C20.5,7.1,20.3,7,20,7h-4c-0.5,0-1,0.5-1,1v8c0,0.3,0.2,0.6,0.4,0.8c0.2,0.1,0.4,0.2,0.6,0.2h7
		c0.5,0,1-0.5,1-1v-5C24,10.7,23.9,10.5,23.7,10.3z M22,15h-5V9h2.6l2.4,2.4V15z"/>
	<path class="st0" d="M8.7,17H5.5C6.3,17,7,17.7,7,18.5S6.3,20,5.5,20S4,19.3,4,18.5S4.7,17,5.5,17H2.3C2.1,17.5,2,18,2,18.5
		C2,20.4,3.6,22,5.5,22S9,20.4,9,18.5C9,18,8.9,17.5,8.7,17z"/>
	<path class="st0" d="M21.7,17c-0.6-1.2-1.8-2-3.2-2c-0.5,0-1,0.1-1.5,0.3c-0.7,0.3-1.2,0.8-1.6,1.5c0,0.1-0.1,0.1-0.1,0.2
		c-0.2,0.5-0.3,1-0.3,1.5c0,1.9,1.6,3.5,3.5,3.5s3.5-1.6,3.5-3.5C22,18,21.9,17.5,21.7,17z M18.5,20c-0.8,0-1.5-0.7-1.5-1.5
		s0.7-1.5,1.5-1.5s1.5,0.7,1.5,1.5S19.3,20,18.5,20z"/>
</g>
</svg>
