<?xml version="1.0" encoding="utf-8"?>
<!-- Generator: Adobe Illustrator 26.0.3, SVG Export Plug-In . SVG Version: 6.00 Build 0)  -->
<svg version="1.1" id="Layer_1" xmlns="http://www.w3.org/2000/svg" xmlns:xlink="http://www.w3.org/1999/xlink" x="0px" y="0px"
	 viewBox="0 0 20 20" style="enable-background:new 0 0 20 20;" xml:space="preserve">
<style type="text/css">
	.st0{fill:#FFFFFF;}
</style>
<g id="download" transform="translate(-2 -2)">
	<path id="Path_4" class="st0" d="M19,22H5c-1.7,0-3-1.3-3-3v-4c0-0.6,0.4-1,1-1s1,0.4,1,1v4c0,0.6,0.4,1,1,1h14c0.6,0,1-0.4,1-1v-4
		c0-0.6,0.4-1,1-1s1,0.4,1,1v4C22,20.7,20.7,22,19,22z"/>
	<g>
		<path id="Path_5" class="st0" d="M12,2c-0.3,0-0.5,0.1-0.7,0.3l-5,5c-0.4,0.4-0.4,1,0,1.4c0.4,0.4,1,0.4,1.4,0L12,4.4l4.3,4.3
			c0.4,0.4,1,0.4,1.4,0c0.4-0.4,0.4-1,0-1.4l-5-5C12.5,2.1,12.3,2,12,2z"/>
		<path id="Line_6" class="st0" d="M12,2c-0.6,0-1,0.4-1,1v12c0,0.6,0.4,1,1,1s1-0.4,1-1V3C13,2.4,12.6,2,12,2z"/>
	</g>
</g>
</svg>
