<svg id="Layer_1" data-name="Layer 1" xmlns="http://www.w3.org/2000/svg" viewBox="0 0 20 22"><defs><style>.cls-1{fill:#ed5c57;}</style></defs><path class="cls-1" d="M21,5H17V4a3,3,0,0,0-3-3H10A3,3,0,0,0,7,4V5H3A1,1,0,0,0,3,7H4V20a3,3,0,0,0,3,3H17a3,3,0,0,0,3-3V7h1a1,1,0,0,0,0-2ZM9,4a1,1,0,0,1,1-1h4a1,1,0,0,1,1,1V5H9Zm9,16a1,1,0,0,1-1,1H7a1,1,0,0,1-1-1V7H18Z" transform="translate(-2 -1)"/><path class="cls-1" d="M10,10a1,1,0,0,0-1,1v6a1,1,0,0,0,2,0V11A1,1,0,0,0,10,10Z" transform="translate(-2 -1)"/><path class="cls-1" d="M14,10a1,1,0,0,0-1,1v6a1,1,0,0,0,2,0V11A1,1,0,0,0,14,10Z" transform="translate(-2 -1)"/></svg>